#N canvas 326 338 613 416 10;
#X obj 185 210 tr_biquad~ 4 2500 1 1;
#X obj 71 162 tr_biquad~ 4 12000 1 1;
#X obj 313 250 tr_biquad~ 4 80 1 1;
#X obj 71 114 inlet~;
#X obj 312 292 outlet~;
#X obj 159 27 inlet;
#X obj 160 114 prepend gain;
#X obj 160 92 scale 0 1 -15 15;
#X obj 300 114 prepend gain;
#X obj 300 92 scale 0 1 -15 15;
#X obj 451 113 prepend gain;
#X obj 451 91 scale 0 1 -15 15;
#X obj 300 32 inlet;
#X obj 446 30 inlet;
#X connect 0 0 2 0;
#X connect 1 0 0 0;
#X connect 2 0 4 0;
#X connect 3 0 1 0;
#X connect 5 0 7 0;
#X connect 6 0 1 0;
#X connect 7 0 6 0;
#X connect 8 0 0 0;
#X connect 9 0 8 0;
#X connect 10 0 2 0;
#X connect 11 0 10 0;
#X connect 12 0 9 0;
#X connect 13 0 11 0;
