#N canvas 300 109 1314 778 10;
#X obj 932 48 udpreceive 57120;
#X obj 932 74 unpackOSC;
#X floatatom 69 95 5 0 0 0 - - -;
#X floatatom 121 120 5 0 0 0 - - -;
#X obj 46 47 adc~ 1;
#X obj 99 47 adc~ 2;
#X obj 152 47 adc~ 3;
#X obj 204 47 adc~ 4;
#X obj 254 47 adc~ 5;
#X obj 304 47 adc~ 6;
#X obj 354 47 adc~ 7;
#X obj 406 47 adc~ 8;
#X obj 457 47 adc~ 9;
#X obj 508 47 adc~ 10;
#X obj 565 47 adc~ 11;
#X obj 623 47 adc~ 12;
#X obj 681 47 adc~ 13;
#X obj 738 47 adc~ 14;
#X obj 797 47 adc~ 15;
#X obj 855 47 adc~ 16;
#X obj 47 442 *~ 0;
#X obj 100 442 *~ 0;
#X obj 153 442 *~ 0;
#X obj 205 442 *~ 0;
#X obj 255 442 *~ 0;
#X obj 305 442 *~ 0;
#X obj 355 442 *~ 0;
#X obj 407 442 *~ 0;
#X obj 455 442 *~ 0;
#X obj 506 442 *~ 0;
#X obj 566 442 *~ 0;
#X obj 624 442 *~ 0;
#X obj 682 442 *~ 0;
#X obj 739 442 *~ 0;
#X obj 798 442 *~ 0;
#X obj 856 442 *~ 0;
#X obj 46 467 dac~ 1;
#X obj 98 468 dac~ 2;
#X floatatom 276 199 5 0 0 0 - - -;
#X floatatom 327 224 5 0 0 0 - - -;
#X floatatom 480 100 5 0 0 0 - - -;
#X floatatom 533 126 5 0 0 0 - - -;
#X floatatom 706 204 5 0 0 0 - - -;
#X floatatom 762 230 5 0 0 0 - - -;
#X floatatom 171 147 5 0 0 0 - - -;
#X floatatom 227 171 5 0 0 0 - - -;
#X floatatom 376 254 5 0 0 0 - - -;
#X floatatom 427 283 5 0 0 0 - - -;
#X floatatom 587 153 5 0 0 0 - - -;
#X floatatom 648 179 5 0 0 0 - - -;
#X floatatom 820 259 5 0 0 0 - - -;
#X floatatom 878 286 5 0 0 0 - - -;
#X obj 37 533 env~ 128;
#X obj 37 554 - 100;
#X obj 37 575 vu 15 120 empty empty -1 -8 0 10 -66577 -1 1 0;
#X obj 151 468 dac~ 3;
#X obj 202 468 dac~ 4;
#X obj 253 468 dac~ 5;
#X obj 305 466 dac~ 6;
#X obj 352 468 dac~ 7;
#X obj 406 468 dac~ 8;
#X obj 456 468 dac~ 9;
#X obj 505 468 dac~ 10;
#X obj 565 468 dac~ 11;
#X obj 622 468 dac~ 12;
#X obj 680 468 dac~ 13;
#X obj 739 468 dac~ 14;
#X obj 795 468 dac~ 15;
#X obj 856 468 dac~ 16;
#X text 664 688 use_channels;
#X text 663 666 comment needed for the server:;
#X obj 955 575 tr_biquad~ 0 500 1 1;
#X text 960 622 0 -> LOWPASS;
#X text 960 636 1 -> HIGHPASS;
#X text 960 651 2 -> LOWSHELF;
#X text 960 678 4 -> PEAK FILTER;
#X text 959 604 filterType:, f 12;
#X text 960 665 3 -> HIGHSHELF;
#X obj 47 390 biquad_poly;
#X obj 878 264 route /ospw/16/4/slider/volume/0;
#X obj 100 414 biquad_poly;
#X obj 152 391 biquad_poly;
#X obj 205 415 biquad_poly;
#X obj 251 390 biquad_poly;
#X obj 304 414 biquad_poly;
#X obj 356 391 biquad_poly;
#X obj 408 415 biquad_poly;
#X obj 454 390 biquad_poly;
#X obj 507 414 biquad_poly;
#X obj 564 391 biquad_poly;
#X obj 623 415 biquad_poly;
#X obj 680 390 biquad_poly;
#X obj 740 414 biquad_poly;
#X obj 797 389 biquad_poly;
#X obj 855 418 biquad_poly;
#N canvas 0 26 1440 813 key_objects 0;
#X obj 580 422 route /ospw/16/3/dial/80/0.5;
#X obj 578 373 route /ospw/16/1/dial/12k/0.5;
#X obj 579 396 route /ospw/16/2/dial/2.5k/0.5;
#X obj 46 20 inlet;
#X obj 56 526 outlet;
#X obj 104 527 outlet;
#X obj 153 527 outlet;
#X obj 202 527 outlet;
#X obj 258 526 outlet;
#X obj 306 527 outlet;
#X obj 355 527 outlet;
#X obj 404 527 outlet;
#X obj 462 528 outlet;
#X obj 510 529 outlet;
#X obj 559 529 outlet;
#X obj 608 529 outlet;
#X obj 664 528 outlet;
#X obj 712 529 outlet;
#X obj 761 529 outlet;
#X obj 810 529 outlet;
#X obj 864 526 outlet;
#X obj 912 527 outlet;
#X obj 961 527 outlet;
#X obj 1010 527 outlet;
#X obj 1066 526 outlet;
#X obj 1114 527 outlet;
#X obj 1163 527 outlet;
#X obj 1212 527 outlet;
#X obj 1267 528 outlet;
#X obj 1316 529 outlet;
#X obj 1366 530 outlet;
#X obj 1420 527 outlet;
#X obj 1473 526 outlet;
#X obj 1520 527 outlet;
#X obj 1571 527 outlet;
#X obj 1622 528 outlet;
#X obj 1677 525 outlet;
#X obj 1729 525 outlet;
#X obj 1774 528 outlet;
#X obj 1821 528 outlet;
#X obj 1878 523 outlet;
#X obj 1930 523 outlet;
#X obj 1981 522 outlet;
#X obj 2431 519 outlet;
#X obj 2027 522 outlet;
#X obj 2081 519 outlet;
#X obj 2127 520 outlet;
#X obj 2177 522 outlet;
#X obj 2230 521 outlet;
#X obj 2286 518 outlet;
#X obj 2334 519 outlet;
#X obj 2380 518 outlet;
#X obj 51 87 route /ospw/1/1/dial/12k/0.5/0.5;
#X obj 48 114 route /ospw/1/2/dial/2.5k/0.5;
#X obj 49 140 route /ospw/1/3/dial/80/0.5;
#X obj 223 115 route /ospw/2/2/dial/2.5k/0.5/0.5;
#X obj 224 141 route /ospw/2/3/dial/80/0.5;
#X obj 439 87 route /ospw/3/1/dial/12k/0.5;
#X obj 441 111 route /ospw/3/2/dial/2.5k/0.5;
#X obj 617 87 route /ospw/4/1/dial/12k/0.5;
#X obj 619 112 route /ospw/4/2/dial/2.5k/0.5;
#X obj 620 138 route /ospw/4/3/dial/80/0.5;
#X obj 442 137 route /ospw/3/3/dial/80/0.5;
#X obj 42 189 route /ospw/5/1/dial/12k/0.5;
#X obj 44 214 route /ospw/5/2/dial/2.5k/0.5;
#X obj 45 239 route /ospw/5/3/dial/80/0.5;
#X obj 222 191 route /ospw/6/1/dial/12k/0.5;
#X obj 222 217 route /ospw/6/2/dial/2.5k/0.5;
#X obj 227 240 route /ospw/6/3/dial/80/0.5;
#X obj 395 188 route /ospw/7/1/dial/12k/0.5;
#X obj 399 213 route /ospw/7/2/dial/2.5k/0.5;
#X obj 401 237 route /ospw/7/3/dial/80/0.5;
#X obj 576 193 route /ospw/8/1/dial/12k/0.5;
#X obj 576 217 route /ospw/8/2/dial/2.5k/0.5;
#X obj 578 239 route /ospw/8/3/dial/80/0.5;
#X obj 45 273 route /ospw/9/1/dial/12k/0.5;
#X obj 47 297 route /ospw/9/2/dial/2.5k/0.5;
#X obj 48 322 route /ospw/9/3/dial/80/0.5;
#X obj 220 274 route /ospw/10/1/dial/12k/0.5;
#X obj 222 298 route /ospw/10/2/dial/2.5k/0.5;
#X obj 223 324 route /ospw/10/3/dial/80/0.5;
#X obj 405 297 route /ospw/11/2/dial/2.5k/0.5;
#X obj 406 323 route /ospw/11/3/dial/80/0.5;
#X obj 581 273 route /ospw/12/1/dial/12k/0.5;
#X obj 583 297 route /ospw/12/2/dial/2.5k/0.5;
#X obj 584 323 route /ospw/12/3/dial/80/0.5;
#X obj 41 372 route /ospw/13/1/dial/12k/0.5;
#X obj 43 396 route /ospw/13/2/dial/2.5k/0.5;
#X obj 44 422 route /ospw/13/3/dial/80/0.5;
#X obj 216 373 route /ospw/14/1/dial/12k/0.5;
#X obj 218 397 route /ospw/14/2/dial/2.5k/0.5;
#X obj 219 423 route /ospw/14/3/dial/80/0.5;
#X obj 399 372 route /ospw/15/1/dial/12k/0.5;
#X obj 401 396 route /ospw/15/2/dial/2.5k/0.5;
#X obj 410 420 route /ospw/15/3/dial/80/0.5;
#X obj 403 273 route /ospw/11/1/dial/12k/0.5;
#X obj 221 91 route /ospw/2/1/dial/12k/0.5;
#X connect 0 0 43 0;
#X connect 1 0 50 0;
#X connect 2 0 51 0;
#X connect 3 0 1 0;
#X connect 3 0 2 0;
#X connect 3 0 0 0;
#X connect 3 0 52 0;
#X connect 3 0 53 0;
#X connect 3 0 54 0;
#X connect 3 0 55 0;
#X connect 3 0 56 0;
#X connect 3 0 57 0;
#X connect 3 0 58 0;
#X connect 3 0 62 0;
#X connect 3 0 59 0;
#X connect 3 0 60 0;
#X connect 3 0 61 0;
#X connect 3 0 63 0;
#X connect 3 0 64 0;
#X connect 3 0 65 0;
#X connect 3 0 68 0;
#X connect 3 0 67 0;
#X connect 3 0 66 0;
#X connect 3 0 69 0;
#X connect 3 0 72 0;
#X connect 3 0 73 0;
#X connect 3 0 70 0;
#X connect 3 0 71 0;
#X connect 3 0 74 0;
#X connect 3 0 75 0;
#X connect 3 0 76 0;
#X connect 3 0 77 0;
#X connect 3 0 78 0;
#X connect 3 0 79 0;
#X connect 3 0 80 0;
#X connect 3 0 81 0;
#X connect 3 0 82 0;
#X connect 3 0 83 0;
#X connect 3 0 84 0;
#X connect 3 0 85 0;
#X connect 3 0 92 0;
#X connect 3 0 93 0;
#X connect 3 0 94 0;
#X connect 3 0 89 0;
#X connect 3 0 90 0;
#X connect 3 0 91 0;
#X connect 3 0 86 0;
#X connect 3 0 87 0;
#X connect 3 0 88 0;
#X connect 3 0 95 0;
#X connect 3 0 96 0;
#X connect 52 0 4 0;
#X connect 53 0 5 0;
#X connect 54 0 6 0;
#X connect 55 0 8 0;
#X connect 56 0 9 0;
#X connect 57 0 10 0;
#X connect 58 0 11 0;
#X connect 59 0 13 0;
#X connect 60 0 14 0;
#X connect 61 0 15 0;
#X connect 62 0 12 0;
#X connect 63 0 16 0;
#X connect 64 0 17 0;
#X connect 65 0 18 0;
#X connect 66 0 19 0;
#X connect 67 0 20 0;
#X connect 68 0 21 0;
#X connect 69 0 22 0;
#X connect 70 0 23 0;
#X connect 71 0 24 0;
#X connect 72 0 25 0;
#X connect 73 0 26 0;
#X connect 74 0 27 0;
#X connect 75 0 28 0;
#X connect 76 0 29 0;
#X connect 77 0 30 0;
#X connect 78 0 31 0;
#X connect 79 0 32 0;
#X connect 80 0 33 0;
#X connect 81 0 35 0;
#X connect 82 0 36 0;
#X connect 83 0 37 0;
#X connect 84 0 38 0;
#X connect 85 0 39 0;
#X connect 86 0 40 0;
#X connect 87 0 41 0;
#X connect 88 0 42 0;
#X connect 89 0 44 0;
#X connect 90 0 45 0;
#X connect 91 0 46 0;
#X connect 92 0 47 0;
#X connect 93 0 48 0;
#X connect 94 0 49 0;
#X connect 95 0 34 0;
#X connect 96 0 7 0;
#X restore 925 301 pd key_objects;
#X f 54;
#X obj 69 73 route /ospw/1/4/slider/volume/0;
#X obj 121 98 route /ospw/2/4/slider/volume/0;
#X obj 171 124 route /ospw/3/4/slider/volume/0;
#X obj 226 149 route /ospw/4/4/slider/volume/0;
#X obj 276 177 route /ospw/5/4/slider/volume/0;
#X obj 326 202 route /ospw/6/4/slider/volume/0;
#X obj 376 232 route /ospw/7/4/slider/volume/0;
#X obj 427 260 route /ospw/8/4/slider/volume/0;
#X obj 480 77 route /ospw/9/4/slider/volume/0;
#X obj 534 104 route /ospw/10/4/slider/volume/0;
#X obj 587 131 route /ospw/11/4/slider/volume/0;
#X obj 648 157 route /ospw/12/4/slider/volume/0;
#X obj 706 182 route /ospw/13/4/slider/volume/0;
#X obj 762 208 route /ospw/14/4/slider/volume/0;
#X obj 820 236 route /ospw/15/4/slider/volume/0;
#X connect 0 0 1 0;
#X connect 1 0 79 0;
#X connect 1 0 95 0;
#X connect 1 0 96 0;
#X connect 1 0 97 0;
#X connect 1 0 98 0;
#X connect 1 0 99 0;
#X connect 1 0 100 0;
#X connect 1 0 101 0;
#X connect 1 0 102 0;
#X connect 1 0 103 0;
#X connect 1 0 104 0;
#X connect 1 0 105 0;
#X connect 1 0 106 0;
#X connect 1 0 107 0;
#X connect 1 0 108 0;
#X connect 1 0 109 0;
#X connect 1 0 110 0;
#X connect 4 0 52 0;
#X connect 4 0 78 0;
#X connect 5 0 80 0;
#X connect 6 0 81 0;
#X connect 7 0 82 0;
#X connect 8 0 83 0;
#X connect 9 0 84 0;
#X connect 10 0 85 0;
#X connect 11 0 86 0;
#X connect 12 0 87 0;
#X connect 13 0 88 0;
#X connect 14 0 89 0;
#X connect 15 0 90 0;
#X connect 16 0 91 0;
#X connect 17 0 92 0;
#X connect 18 0 93 0;
#X connect 19 0 94 0;
#X connect 20 0 36 0;
#X connect 21 0 37 0;
#X connect 22 0 55 0;
#X connect 23 0 56 0;
#X connect 24 0 57 0;
#X connect 25 0 58 0;
#X connect 26 0 59 0;
#X connect 27 0 60 0;
#X connect 28 0 61 0;
#X connect 29 0 62 0;
#X connect 30 0 63 0;
#X connect 31 0 64 0;
#X connect 32 0 65 0;
#X connect 33 0 66 0;
#X connect 34 0 67 0;
#X connect 35 0 68 0;
#X connect 52 0 53 0;
#X connect 53 0 54 0;
#X connect 78 0 20 0;
#X connect 79 0 51 0;
#X connect 79 0 35 1;
#X connect 80 0 21 0;
#X connect 81 0 22 0;
#X connect 82 0 23 0;
#X connect 83 0 24 0;
#X connect 84 0 25 0;
#X connect 85 0 26 0;
#X connect 86 0 27 0;
#X connect 87 0 28 0;
#X connect 88 0 29 0;
#X connect 89 0 30 0;
#X connect 90 0 31 0;
#X connect 91 0 32 0;
#X connect 92 0 33 0;
#X connect 93 0 34 0;
#X connect 94 0 35 0;
#X connect 95 0 78 1;
#X connect 95 1 78 2;
#X connect 95 2 78 3;
#X connect 95 3 80 1;
#X connect 95 4 80 2;
#X connect 95 5 80 3;
#X connect 95 6 81 1;
#X connect 95 7 81 2;
#X connect 95 8 81 3;
#X connect 95 9 82 1;
#X connect 95 10 82 2;
#X connect 95 11 82 3;
#X connect 95 12 83 1;
#X connect 95 13 83 2;
#X connect 95 14 83 3;
#X connect 95 15 84 1;
#X connect 95 16 84 2;
#X connect 95 17 84 3;
#X connect 95 18 85 1;
#X connect 95 19 85 2;
#X connect 95 20 85 3;
#X connect 95 21 86 1;
#X connect 95 22 86 2;
#X connect 95 23 86 3;
#X connect 95 24 87 1;
#X connect 95 25 87 2;
#X connect 95 26 87 3;
#X connect 95 27 88 1;
#X connect 95 28 88 2;
#X connect 95 29 88 3;
#X connect 95 30 89 1;
#X connect 95 31 89 2;
#X connect 95 32 89 3;
#X connect 95 33 90 1;
#X connect 95 34 90 2;
#X connect 95 35 90 3;
#X connect 95 36 91 1;
#X connect 95 37 91 2;
#X connect 95 38 91 3;
#X connect 95 39 92 1;
#X connect 95 40 92 2;
#X connect 95 41 92 3;
#X connect 95 42 93 1;
#X connect 95 43 93 2;
#X connect 95 44 93 3;
#X connect 95 45 94 1;
#X connect 95 46 94 2;
#X connect 95 47 94 3;
#X connect 96 0 2 0;
#X connect 96 0 20 1;
#X connect 97 0 3 0;
#X connect 97 0 21 1;
#X connect 98 0 44 0;
#X connect 98 0 22 1;
#X connect 99 0 45 0;
#X connect 99 0 23 1;
#X connect 100 0 38 0;
#X connect 100 0 24 1;
#X connect 101 0 39 0;
#X connect 101 0 25 1;
#X connect 102 0 46 0;
#X connect 102 0 26 1;
#X connect 103 0 47 0;
#X connect 103 0 27 1;
#X connect 104 0 40 0;
#X connect 104 0 28 1;
#X connect 105 0 41 0;
#X connect 105 0 29 1;
#X connect 106 0 48 0;
#X connect 106 0 30 1;
#X connect 107 0 49 0;
#X connect 107 0 31 1;
#X connect 108 0 42 0;
#X connect 108 0 32 1;
#X connect 109 0 43 0;
#X connect 109 0 33 1;
#X connect 110 0 50 0;
#X connect 110 0 34 1;
