#N canvas 72 64 1799 772 10;
#X obj 498 45 adc~ 1 2 3 4 5 6 7 8, f 21;
#X obj 32 431 env~ 128;
#X obj 32 452 - 100;
#X obj 32 473 vu 15 120 empty empty -1 -8 0 10 -66577 -1 1 0;
#X obj 100 434 env~ 128;
#X obj 100 455 - 100;
#X obj 100 476 vu 15 120 empty empty -1 -8 0 10 -66577 -1 1 0;
#N canvas 227 509 1693 669 osc_stuff 0;
#X obj 153 224 t b f;
#X obj 42 39 oscparse;
#X obj 42 18 netreceive -u -b 57120;
#X obj 42 112 route widget0;
#X obj 43 152 route node0;
#X obj 42 58 route list;
#X obj 116 151 route node1;
#X obj 42 299 pack f f f f f f f f, f 23;
#X obj 41 349 outlet;
#X obj 153 175 route node5;
#X obj 229 175 route node6;
#X obj 308 173 route node7;
#X obj 192 151 route node2;
#X obj 267 149 route node3;
#X obj 76 176 route node4;
#X obj 76 224 t b f;
#X obj 308 223 t b f;
#X obj 229 224 t b f;
#X obj 116 224 t b f;
#X obj 268 223 t b f;
#X obj 192 224 t b f;
#X obj 140 576 outlet;
#X obj 451 348 outlet;
#X obj 563 576 outlet;
#X obj 811 344 outlet;
#X obj 252 462 t b f;
#X obj 142 390 route node0;
#X obj 215 389 route node1;
#X obj 141 537 pack f f f f f f f f, f 23;
#X obj 252 413 route node5;
#X obj 328 413 route node6;
#X obj 407 411 route node7;
#X obj 291 389 route node2;
#X obj 366 387 route node3;
#X obj 175 414 route node4;
#X obj 175 462 t b f;
#X obj 407 461 t b f;
#X obj 328 462 t b f;
#X obj 215 462 t b f;
#X obj 367 461 t b f;
#X obj 291 462 t b f;
#X obj 141 350 route widget1;
#X obj 562 229 t b f;
#X obj 452 157 route node0;
#X obj 525 156 route node1;
#X obj 451 304 pack f f f f f f f f, f 23;
#X obj 562 180 route node5;
#X obj 638 180 route node6;
#X obj 717 178 route node7;
#X obj 601 156 route node2;
#X obj 676 154 route node3;
#X obj 485 181 route node4;
#X obj 485 229 t b f;
#X obj 717 228 t b f;
#X obj 638 229 t b f;
#X obj 525 229 t b f;
#X obj 677 228 t b f;
#X obj 601 229 t b f;
#X obj 451 117 route widget2;
#X obj 674 459 t b f;
#X obj 564 387 route node0;
#X obj 637 386 route node1;
#X obj 563 534 pack f f f f f f f f, f 23;
#X obj 674 410 route node5;
#X obj 750 410 route node6;
#X obj 829 408 route node7;
#X obj 713 386 route node2;
#X obj 788 384 route node3;
#X obj 597 411 route node4;
#X obj 597 459 t b f;
#X obj 829 458 t b f;
#X obj 750 459 t b f;
#X obj 637 459 t b f;
#X obj 789 458 t b f;
#X obj 713 459 t b f;
#X obj 563 347 route widget3;
#X obj 922 224 t b f;
#X obj 812 152 route node0;
#X obj 885 151 route node1;
#X obj 811 299 pack f f f f f f f f, f 23;
#X obj 922 175 route node5;
#X obj 998 175 route node6;
#X obj 1077 173 route node7;
#X obj 961 151 route node2;
#X obj 1036 149 route node3;
#X obj 845 176 route node4;
#X obj 845 224 t b f;
#X obj 1077 223 t b f;
#X obj 998 224 t b f;
#X obj 885 224 t b f;
#X obj 1037 223 t b f;
#X obj 961 224 t b f;
#X obj 811 112 route widget4;
#X obj 920 575 outlet;
#X obj 1168 343 outlet;
#X obj 1031 458 t b f;
#X obj 921 386 route node0;
#X obj 994 385 route node1;
#X obj 920 533 pack f f f f f f f f, f 23;
#X obj 1031 409 route node5;
#X obj 1107 409 route node6;
#X obj 1186 407 route node7;
#X obj 1070 385 route node2;
#X obj 1145 383 route node3;
#X obj 954 410 route node4;
#X obj 954 458 t b f;
#X obj 1186 457 t b f;
#X obj 1107 458 t b f;
#X obj 994 458 t b f;
#X obj 1146 457 t b f;
#X obj 1070 458 t b f;
#X obj 1279 223 t b f;
#X obj 1169 151 route node0;
#X obj 1242 150 route node1;
#X obj 1168 298 pack f f f f f f f f, f 23;
#X obj 1279 174 route node5;
#X obj 1355 174 route node6;
#X obj 1434 172 route node7;
#X obj 1318 150 route node2;
#X obj 1393 148 route node3;
#X obj 1202 175 route node4;
#X obj 1202 223 t b f;
#X obj 1434 222 t b f;
#X obj 1355 223 t b f;
#X obj 1242 223 t b f;
#X obj 1394 222 t b f;
#X obj 1318 223 t b f;
#X obj 1280 575 outlet;
#X obj 1391 455 t b f;
#X obj 1281 383 route node0;
#X obj 1354 382 route node1;
#X obj 1280 530 pack f f f f f f f f, f 23;
#X obj 1391 406 route node5;
#X obj 1467 406 route node6;
#X obj 1546 404 route node7;
#X obj 1430 382 route node2;
#X obj 1505 380 route node3;
#X obj 1314 407 route node4;
#X obj 1314 455 t b f;
#X obj 1546 454 t b f;
#X obj 1467 455 t b f;
#X obj 1354 455 t b f;
#X obj 1506 454 t b f;
#X obj 1430 455 t b f;
#X obj 920 346 route widget5;
#X obj 1168 111 route widget6;
#X obj 1280 343 route widget7;
#X connect 0 0 7 0;
#X connect 0 1 7 5;
#X connect 1 0 5 0;
#X connect 2 0 1 0;
#X connect 3 0 4 0;
#X connect 3 0 6 0;
#X connect 3 0 12 0;
#X connect 3 0 14 0;
#X connect 3 0 9 0;
#X connect 3 0 13 0;
#X connect 3 0 11 0;
#X connect 3 0 10 0;
#X connect 4 0 7 0;
#X connect 5 0 3 0;
#X connect 5 0 41 0;
#X connect 5 0 58 0;
#X connect 5 0 75 0;
#X connect 5 0 92 0;
#X connect 5 0 144 0;
#X connect 5 0 145 0;
#X connect 5 0 146 0;
#X connect 6 0 18 0;
#X connect 7 0 8 0;
#X connect 9 0 0 0;
#X connect 10 0 17 0;
#X connect 11 0 16 0;
#X connect 12 0 20 0;
#X connect 13 0 19 0;
#X connect 14 0 15 0;
#X connect 15 0 7 0;
#X connect 15 1 7 4;
#X connect 16 0 7 0;
#X connect 16 1 7 7;
#X connect 17 0 7 0;
#X connect 17 1 7 6;
#X connect 18 0 7 0;
#X connect 18 1 7 1;
#X connect 19 0 7 0;
#X connect 19 1 7 3;
#X connect 20 0 7 0;
#X connect 20 1 7 2;
#X connect 25 0 28 0;
#X connect 25 1 28 5;
#X connect 26 0 28 0;
#X connect 27 0 38 0;
#X connect 28 0 21 0;
#X connect 29 0 25 0;
#X connect 30 0 37 0;
#X connect 31 0 36 0;
#X connect 32 0 40 0;
#X connect 33 0 39 0;
#X connect 34 0 35 0;
#X connect 35 0 28 0;
#X connect 35 1 28 4;
#X connect 36 0 28 0;
#X connect 36 1 28 7;
#X connect 37 0 28 0;
#X connect 37 1 28 6;
#X connect 38 0 28 0;
#X connect 38 1 28 1;
#X connect 39 0 28 0;
#X connect 39 1 28 3;
#X connect 40 0 28 0;
#X connect 40 1 28 2;
#X connect 41 0 26 0;
#X connect 41 0 27 0;
#X connect 41 0 32 0;
#X connect 41 0 34 0;
#X connect 41 0 29 0;
#X connect 41 0 33 0;
#X connect 41 0 31 0;
#X connect 41 0 30 0;
#X connect 42 0 45 0;
#X connect 42 1 45 5;
#X connect 43 0 45 0;
#X connect 44 0 55 0;
#X connect 45 0 22 0;
#X connect 46 0 42 0;
#X connect 47 0 54 0;
#X connect 48 0 53 0;
#X connect 49 0 57 0;
#X connect 50 0 56 0;
#X connect 51 0 52 0;
#X connect 52 0 45 0;
#X connect 52 1 45 4;
#X connect 53 0 45 0;
#X connect 53 1 45 7;
#X connect 54 0 45 0;
#X connect 54 1 45 6;
#X connect 55 0 45 0;
#X connect 55 1 45 1;
#X connect 56 0 45 0;
#X connect 56 1 45 3;
#X connect 57 0 45 0;
#X connect 57 1 45 2;
#X connect 58 0 43 0;
#X connect 58 0 44 0;
#X connect 58 0 49 0;
#X connect 58 0 51 0;
#X connect 58 0 46 0;
#X connect 58 0 50 0;
#X connect 58 0 48 0;
#X connect 58 0 47 0;
#X connect 59 0 62 0;
#X connect 59 1 62 5;
#X connect 60 0 62 0;
#X connect 61 0 72 0;
#X connect 62 0 23 0;
#X connect 63 0 59 0;
#X connect 64 0 71 0;
#X connect 65 0 70 0;
#X connect 66 0 74 0;
#X connect 67 0 73 0;
#X connect 68 0 69 0;
#X connect 69 0 62 0;
#X connect 69 1 62 4;
#X connect 70 0 62 0;
#X connect 70 1 62 7;
#X connect 71 0 62 0;
#X connect 71 1 62 6;
#X connect 72 0 62 0;
#X connect 72 1 62 1;
#X connect 73 0 62 0;
#X connect 73 1 62 3;
#X connect 74 0 62 0;
#X connect 74 1 62 2;
#X connect 75 0 60 0;
#X connect 75 0 61 0;
#X connect 75 0 66 0;
#X connect 75 0 68 0;
#X connect 75 0 63 0;
#X connect 75 0 67 0;
#X connect 75 0 65 0;
#X connect 75 0 64 0;
#X connect 76 0 79 0;
#X connect 76 1 79 5;
#X connect 77 0 79 0;
#X connect 78 0 89 0;
#X connect 79 0 24 0;
#X connect 80 0 76 0;
#X connect 81 0 88 0;
#X connect 82 0 87 0;
#X connect 83 0 91 0;
#X connect 84 0 90 0;
#X connect 85 0 86 0;
#X connect 86 0 79 0;
#X connect 86 1 79 4;
#X connect 87 0 79 0;
#X connect 87 1 79 7;
#X connect 88 0 79 0;
#X connect 88 1 79 6;
#X connect 89 0 79 0;
#X connect 89 1 79 1;
#X connect 90 0 79 0;
#X connect 90 1 79 3;
#X connect 91 0 79 0;
#X connect 91 1 79 2;
#X connect 92 0 77 0;
#X connect 92 0 78 0;
#X connect 92 0 83 0;
#X connect 92 0 85 0;
#X connect 92 0 80 0;
#X connect 92 0 84 0;
#X connect 92 0 82 0;
#X connect 92 0 81 0;
#X connect 95 0 98 0;
#X connect 95 1 98 5;
#X connect 96 0 98 0;
#X connect 97 0 108 0;
#X connect 98 0 93 0;
#X connect 99 0 95 0;
#X connect 100 0 107 0;
#X connect 101 0 106 0;
#X connect 102 0 110 0;
#X connect 103 0 109 0;
#X connect 104 0 105 0;
#X connect 105 0 98 0;
#X connect 105 1 98 4;
#X connect 106 0 98 0;
#X connect 106 1 98 7;
#X connect 107 0 98 0;
#X connect 107 1 98 6;
#X connect 108 0 98 0;
#X connect 108 1 98 1;
#X connect 109 0 98 0;
#X connect 109 1 98 3;
#X connect 110 0 98 0;
#X connect 110 1 98 2;
#X connect 111 0 114 0;
#X connect 111 1 114 5;
#X connect 112 0 114 0;
#X connect 113 0 124 0;
#X connect 114 0 94 0;
#X connect 115 0 111 0;
#X connect 116 0 123 0;
#X connect 117 0 122 0;
#X connect 118 0 126 0;
#X connect 119 0 125 0;
#X connect 120 0 121 0;
#X connect 121 0 114 0;
#X connect 121 1 114 4;
#X connect 122 0 114 0;
#X connect 122 1 114 7;
#X connect 123 0 114 0;
#X connect 123 1 114 6;
#X connect 124 0 114 0;
#X connect 124 1 114 1;
#X connect 125 0 114 0;
#X connect 125 1 114 3;
#X connect 126 0 114 0;
#X connect 126 1 114 2;
#X connect 128 0 131 0;
#X connect 128 1 131 5;
#X connect 129 0 131 0;
#X connect 130 0 141 0;
#X connect 131 0 127 0;
#X connect 132 0 128 0;
#X connect 133 0 140 0;
#X connect 134 0 139 0;
#X connect 135 0 143 0;
#X connect 136 0 142 0;
#X connect 137 0 138 0;
#X connect 138 0 131 0;
#X connect 138 1 131 4;
#X connect 139 0 131 0;
#X connect 139 1 131 7;
#X connect 140 0 131 0;
#X connect 140 1 131 6;
#X connect 141 0 131 0;
#X connect 141 1 131 1;
#X connect 142 0 131 0;
#X connect 142 1 131 3;
#X connect 143 0 131 0;
#X connect 143 1 131 2;
#X connect 144 0 96 0;
#X connect 144 0 97 0;
#X connect 144 0 102 0;
#X connect 144 0 104 0;
#X connect 144 0 99 0;
#X connect 144 0 103 0;
#X connect 144 0 101 0;
#X connect 144 0 100 0;
#X connect 145 0 112 0;
#X connect 145 0 113 0;
#X connect 145 0 118 0;
#X connect 145 0 120 0;
#X connect 145 0 115 0;
#X connect 145 0 119 0;
#X connect 145 0 117 0;
#X connect 145 0 116 0;
#X connect 146 0 129 0;
#X connect 146 0 130 0;
#X connect 146 0 135 0;
#X connect 146 0 137 0;
#X connect 146 0 132 0;
#X connect 146 0 136 0;
#X connect 146 0 134 0;
#X connect 146 0 133 0;
#X restore 711 42 pd osc_stuff;
#X obj 178 440 env~ 128;
#X obj 178 461 - 100;
#X obj 178 482 vu 15 120 empty empty -1 -8 0 10 -66577 -1 1 0;
#X obj 248 448 env~ 128;
#X obj 248 469 - 100;
#X obj 248 490 vu 15 120 empty empty -1 -8 0 10 -66577 -1 1 0;
#X obj 19 333 vas_binaural_poly, f 21;
#X obj 153 333 vas_binaural_poly, f 22;
#X obj 292 333 vas_binaural_poly, f 22;
#X obj 432 332 vas_binaural_poly, f 22;
#X obj 573 332 vas_binaural_poly, f 22;
#X obj 286 393 dac~ 1 2 3 4 5 6 7 8 9 10 11 12 13 14 15 16, f 105
;
#X obj 720 331 vas_binaural_poly, f 22;
#X obj 860 330 vas_binaural_poly, f 22;
#X obj 1001 330 vas_binaural_poly, f 22;
#X connect 0 0 1 0;
#X connect 0 0 14 0;
#X connect 0 0 15 0;
#X connect 0 0 16 0;
#X connect 0 0 17 0;
#X connect 0 0 18 0;
#X connect 0 0 20 0;
#X connect 0 0 21 0;
#X connect 0 0 22 0;
#X connect 0 1 4 0;
#X connect 0 1 14 1;
#X connect 0 1 15 1;
#X connect 0 1 16 1;
#X connect 0 1 17 1;
#X connect 0 1 18 1;
#X connect 0 1 20 1;
#X connect 0 1 21 1;
#X connect 0 1 22 1;
#X connect 0 2 8 0;
#X connect 0 2 14 2;
#X connect 0 2 15 2;
#X connect 0 2 16 2;
#X connect 0 2 17 2;
#X connect 0 2 18 2;
#X connect 0 2 20 2;
#X connect 0 2 21 2;
#X connect 0 2 22 2;
#X connect 0 3 11 0;
#X connect 0 3 14 3;
#X connect 0 3 15 3;
#X connect 0 3 16 3;
#X connect 0 3 17 3;
#X connect 0 3 18 3;
#X connect 0 3 20 3;
#X connect 0 3 21 3;
#X connect 0 3 22 3;
#X connect 0 4 14 4;
#X connect 0 4 15 4;
#X connect 0 4 16 4;
#X connect 0 4 17 4;
#X connect 0 4 18 4;
#X connect 0 4 20 4;
#X connect 0 4 21 4;
#X connect 0 4 22 4;
#X connect 0 5 14 5;
#X connect 0 5 15 5;
#X connect 0 5 16 5;
#X connect 0 5 17 5;
#X connect 0 5 18 5;
#X connect 0 5 20 5;
#X connect 0 5 21 5;
#X connect 0 5 22 5;
#X connect 0 6 14 6;
#X connect 0 6 15 6;
#X connect 0 6 16 6;
#X connect 0 6 17 6;
#X connect 0 6 18 6;
#X connect 0 6 20 6;
#X connect 0 6 21 6;
#X connect 0 6 22 6;
#X connect 0 7 15 7;
#X connect 0 7 16 7;
#X connect 0 7 17 7;
#X connect 0 7 18 7;
#X connect 0 7 14 7;
#X connect 0 7 20 7;
#X connect 0 7 21 7;
#X connect 0 7 22 7;
#X connect 1 0 2 0;
#X connect 2 0 3 0;
#X connect 4 0 5 0;
#X connect 5 0 6 0;
#X connect 7 0 14 8;
#X connect 7 1 15 8;
#X connect 7 2 16 8;
#X connect 7 3 17 8;
#X connect 7 4 18 8;
#X connect 7 5 20 8;
#X connect 7 6 21 8;
#X connect 7 7 22 8;
#X connect 8 0 9 0;
#X connect 9 0 10 0;
#X connect 11 0 12 0;
#X connect 12 0 13 0;
#X connect 14 0 19 0;
#X connect 14 1 19 1;
#X connect 15 0 19 2;
#X connect 15 1 19 3;
#X connect 16 0 19 4;
#X connect 16 1 19 5;
#X connect 17 0 19 6;
#X connect 17 1 19 7;
#X connect 18 0 19 8;
#X connect 18 1 19 9;
#X connect 20 0 19 10;
#X connect 20 1 19 11;
#X connect 21 0 19 12;
#X connect 21 1 19 13;
#X connect 22 0 19 14;
#X connect 22 1 19 15;
