#N canvas 147 171 1078 648 10;
#X obj 31 40 adc~ 1 2 3 4 5 6 7 8, f 21;
#X obj 32 431 env~ 128;
#X obj 32 452 - 100;
#X obj 32 473 vu 15 120 empty empty -1 -8 0 10 -66577 -1 1 0;
#X obj 100 434 env~ 128;
#X obj 100 455 - 100;
#X obj 100 476 vu 15 120 empty empty -1 -8 0 10 -66577 -1 1 0;
#N canvas -1 323 1440 809 osc_stuff 0;
#X obj 153 224 t b f;
#X obj 42 39 oscparse;
#X obj 42 18 netreceive -u -b 57120;
#X obj 43 152 route node0;
#X obj 41 68 route list;
#X obj 116 151 route node1;
#X obj 42 299 pack f f f f f f f f, f 23;
#X obj 41 349 outlet;
#X obj 153 175 route node5;
#X obj 229 175 route node6;
#X obj 308 173 route node7;
#X obj 192 151 route node2;
#X obj 267 149 route node3;
#X obj 76 176 route node4;
#X obj 76 224 t b f;
#X obj 308 223 t b f;
#X obj 229 224 t b f;
#X obj 116 224 t b f;
#X obj 268 223 t b f;
#X obj 192 224 t b f;
#X obj 140 576 outlet;
#X obj 451 348 outlet;
#X obj 563 576 outlet;
#X obj 811 344 outlet;
#X obj 252 462 t b f;
#X obj 142 390 route node0;
#X obj 215 389 route node1;
#X obj 141 537 pack f f f f f f f f, f 23;
#X obj 252 413 route node5;
#X obj 328 413 route node6;
#X obj 407 411 route node7;
#X obj 291 389 route node2;
#X obj 366 387 route node3;
#X obj 175 414 route node4;
#X obj 175 462 t b f;
#X obj 407 461 t b f;
#X obj 328 462 t b f;
#X obj 215 462 t b f;
#X obj 367 461 t b f;
#X obj 291 462 t b f;
#X obj 562 229 t b f;
#X obj 452 157 route node0;
#X obj 525 156 route node1;
#X obj 451 304 pack f f f f f f f f, f 23;
#X obj 562 180 route node5;
#X obj 638 180 route node6;
#X obj 717 178 route node7;
#X obj 601 156 route node2;
#X obj 676 154 route node3;
#X obj 485 181 route node4;
#X obj 485 229 t b f;
#X obj 717 228 t b f;
#X obj 638 229 t b f;
#X obj 525 229 t b f;
#X obj 677 228 t b f;
#X obj 601 229 t b f;
#X obj 674 459 t b f;
#X obj 564 387 route node0;
#X obj 637 386 route node1;
#X obj 563 534 pack f f f f f f f f, f 23;
#X obj 674 410 route node5;
#X obj 750 410 route node6;
#X obj 829 408 route node7;
#X obj 713 386 route node2;
#X obj 788 384 route node3;
#X obj 597 411 route node4;
#X obj 597 459 t b f;
#X obj 829 458 t b f;
#X obj 750 459 t b f;
#X obj 637 459 t b f;
#X obj 789 458 t b f;
#X obj 713 459 t b f;
#X obj 922 224 t b f;
#X obj 812 152 route node0;
#X obj 885 151 route node1;
#X obj 811 299 pack f f f f f f f f, f 23;
#X obj 922 175 route node5;
#X obj 998 175 route node6;
#X obj 1077 173 route node7;
#X obj 961 151 route node2;
#X obj 1036 149 route node3;
#X obj 845 176 route node4;
#X obj 845 224 t b f;
#X obj 1077 223 t b f;
#X obj 998 224 t b f;
#X obj 885 224 t b f;
#X obj 1037 223 t b f;
#X obj 961 224 t b f;
#X obj 920 575 outlet;
#X obj 1168 343 outlet;
#X obj 1031 458 t b f;
#X obj 921 386 route node0;
#X obj 994 385 route node1;
#X obj 920 533 pack f f f f f f f f, f 23;
#X obj 1031 409 route node5;
#X obj 1107 409 route node6;
#X obj 1186 407 route node7;
#X obj 1070 385 route node2;
#X obj 1145 383 route node3;
#X obj 954 410 route node4;
#X obj 954 458 t b f;
#X obj 1186 457 t b f;
#X obj 1107 458 t b f;
#X obj 994 458 t b f;
#X obj 1146 457 t b f;
#X obj 1070 458 t b f;
#X obj 1279 223 t b f;
#X obj 1169 151 route node0;
#X obj 1242 150 route node1;
#X obj 1168 298 pack f f f f f f f f, f 23;
#X obj 1279 174 route node5;
#X obj 1355 174 route node6;
#X obj 1434 172 route node7;
#X obj 1318 150 route node2;
#X obj 1393 148 route node3;
#X obj 1202 175 route node4;
#X obj 1202 223 t b f;
#X obj 1434 222 t b f;
#X obj 1355 223 t b f;
#X obj 1242 223 t b f;
#X obj 1394 222 t b f;
#X obj 1318 223 t b f;
#X obj 1280 575 outlet;
#X obj 1391 455 t b f;
#X obj 1281 383 route node0;
#X obj 1354 382 route node1;
#X obj 1280 530 pack f f f f f f f f, f 23;
#X obj 1391 406 route node5;
#X obj 1467 406 route node6;
#X obj 1546 404 route node7;
#X obj 1430 382 route node2;
#X obj 1505 380 route node3;
#X obj 1314 407 route node4;
#X obj 1314 455 t b f;
#X obj 1546 454 t b f;
#X obj 1467 455 t b f;
#X obj 1354 455 t b f;
#X obj 1506 454 t b f;
#X obj 1430 455 t b f;
#X obj 1813 202 t b f;
#X obj 1703 130 route node0;
#X obj 1776 129 route node1;
#X obj 1702 277 pack f f f f f f f f, f 23;
#X obj 1701 327 outlet;
#X obj 1813 153 route node5;
#X obj 1889 153 route node6;
#X obj 1968 151 route node7;
#X obj 1852 129 route node2;
#X obj 1927 127 route node3;
#X obj 1736 154 route node4;
#X obj 1736 202 t b f;
#X obj 1968 201 t b f;
#X obj 1889 202 t b f;
#X obj 1776 202 t b f;
#X obj 1928 201 t b f;
#X obj 1852 202 t b f;
#X obj 1800 554 outlet;
#X obj 2111 326 outlet;
#X obj 2223 554 outlet;
#X obj 2471 322 outlet;
#X obj 1912 440 t b f;
#X obj 1802 368 route node0;
#X obj 1875 367 route node1;
#X obj 1801 515 pack f f f f f f f f, f 23;
#X obj 1912 391 route node5;
#X obj 1988 391 route node6;
#X obj 2067 389 route node7;
#X obj 1951 367 route node2;
#X obj 2026 365 route node3;
#X obj 1835 392 route node4;
#X obj 1835 440 t b f;
#X obj 2067 439 t b f;
#X obj 1988 440 t b f;
#X obj 1875 440 t b f;
#X obj 2027 439 t b f;
#X obj 1951 440 t b f;
#X obj 2222 207 t b f;
#X obj 2112 135 route node0;
#X obj 2185 134 route node1;
#X obj 2111 282 pack f f f f f f f f, f 23;
#X obj 2222 158 route node5;
#X obj 2298 158 route node6;
#X obj 2377 156 route node7;
#X obj 2261 134 route node2;
#X obj 2336 132 route node3;
#X obj 2145 159 route node4;
#X obj 2145 207 t b f;
#X obj 2377 206 t b f;
#X obj 2298 207 t b f;
#X obj 2185 207 t b f;
#X obj 2337 206 t b f;
#X obj 2261 207 t b f;
#X obj 2334 437 t b f;
#X obj 2224 365 route node0;
#X obj 2297 364 route node1;
#X obj 2223 512 pack f f f f f f f f, f 23;
#X obj 2334 388 route node5;
#X obj 2410 388 route node6;
#X obj 2489 386 route node7;
#X obj 2373 364 route node2;
#X obj 2448 362 route node3;
#X obj 2257 389 route node4;
#X obj 2257 437 t b f;
#X obj 2489 436 t b f;
#X obj 2410 437 t b f;
#X obj 2297 437 t b f;
#X obj 2449 436 t b f;
#X obj 2373 437 t b f;
#X obj 2582 202 t b f;
#X obj 2472 130 route node0;
#X obj 2545 129 route node1;
#X obj 2471 277 pack f f f f f f f f, f 23;
#X obj 2582 153 route node5;
#X obj 2658 153 route node6;
#X obj 2737 151 route node7;
#X obj 2621 129 route node2;
#X obj 2696 127 route node3;
#X obj 2505 154 route node4;
#X obj 2505 202 t b f;
#X obj 2737 201 t b f;
#X obj 2658 202 t b f;
#X obj 2545 202 t b f;
#X obj 2697 201 t b f;
#X obj 2621 202 t b f;
#X obj 2580 553 outlet;
#X obj 2828 321 outlet;
#X obj 2691 436 t b f;
#X obj 2581 364 route node0;
#X obj 2654 363 route node1;
#X obj 2580 511 pack f f f f f f f f, f 23;
#X obj 2691 387 route node5;
#X obj 2767 387 route node6;
#X obj 2846 385 route node7;
#X obj 2730 363 route node2;
#X obj 2805 361 route node3;
#X obj 2614 388 route node4;
#X obj 2614 436 t b f;
#X obj 2846 435 t b f;
#X obj 2767 436 t b f;
#X obj 2654 436 t b f;
#X obj 2806 435 t b f;
#X obj 2730 436 t b f;
#X obj 2939 201 t b f;
#X obj 2829 129 route node0;
#X obj 2902 128 route node1;
#X obj 2828 276 pack f f f f f f f f, f 23;
#X obj 2939 152 route node5;
#X obj 3015 152 route node6;
#X obj 3094 150 route node7;
#X obj 2978 128 route node2;
#X obj 3053 126 route node3;
#X obj 2862 153 route node4;
#X obj 2862 201 t b f;
#X obj 3094 200 t b f;
#X obj 3015 201 t b f;
#X obj 2902 201 t b f;
#X obj 3054 200 t b f;
#X obj 2978 201 t b f;
#X obj 2940 553 outlet;
#X obj 3051 433 t b f;
#X obj 2941 361 route node0;
#X obj 3014 360 route node1;
#X obj 2940 508 pack f f f f f f f f, f 23;
#X obj 3051 384 route node5;
#X obj 3127 384 route node6;
#X obj 3206 382 route node7;
#X obj 3090 360 route node2;
#X obj 3165 358 route node3;
#X obj 2974 385 route node4;
#X obj 2974 433 t b f;
#X obj 3206 432 t b f;
#X obj 3127 433 t b f;
#X obj 3014 433 t b f;
#X obj 3166 432 t b f;
#X obj 3090 433 t b f;
#X obj 42 112 route widget0_angle;
#X obj 451 117 route widget2_angle;
#X obj 811 112 route widget4_angle;
#X obj 1168 111 route widget6_angle;
#X obj 141 350 route widget1_angle;
#X obj 563 347 route widget3_angle;
#X obj 920 346 route widget5_angle;
#X obj 1280 343 route widget7_angle;
#X obj 1702 90 route widget0_dist;
#X obj 2111 95 route widget2_dist;
#X obj 2471 90 route widget4_dist;
#X obj 2828 89 route widget6_dist;
#X obj 1801 328 route widget1_dist;
#X obj 2223 325 route widget3_dist;
#X obj 2580 324 route widget5_dist;
#X obj 2940 321 route widget7_dist;
#X connect 0 0 6 0;
#X connect 0 1 6 5;
#X connect 1 0 4 0;
#X connect 2 0 1 0;
#X connect 3 0 6 0;
#X connect 4 0 275 0;
#X connect 4 0 276 0;
#X connect 4 0 277 0;
#X connect 4 0 278 0;
#X connect 4 0 279 0;
#X connect 4 0 280 0;
#X connect 4 0 281 0;
#X connect 4 0 282 0;
#X connect 4 0 283 0;
#X connect 4 0 284 0;
#X connect 4 0 285 0;
#X connect 4 0 286 0;
#X connect 4 0 287 0;
#X connect 4 0 288 0;
#X connect 4 0 289 0;
#X connect 4 0 290 0;
#X connect 5 0 17 0;
#X connect 6 0 7 0;
#X connect 8 0 0 0;
#X connect 9 0 16 0;
#X connect 10 0 15 0;
#X connect 11 0 19 0;
#X connect 12 0 18 0;
#X connect 13 0 14 0;
#X connect 14 0 6 0;
#X connect 14 1 6 4;
#X connect 15 0 6 0;
#X connect 15 1 6 7;
#X connect 16 0 6 0;
#X connect 16 1 6 6;
#X connect 17 0 6 0;
#X connect 17 1 6 1;
#X connect 18 0 6 0;
#X connect 18 1 6 3;
#X connect 19 0 6 0;
#X connect 19 1 6 2;
#X connect 24 0 27 0;
#X connect 24 1 27 5;
#X connect 25 0 27 0;
#X connect 26 0 37 0;
#X connect 27 0 20 0;
#X connect 28 0 24 0;
#X connect 29 0 36 0;
#X connect 30 0 35 0;
#X connect 31 0 39 0;
#X connect 32 0 38 0;
#X connect 33 0 34 0;
#X connect 34 0 27 0;
#X connect 34 1 27 4;
#X connect 35 0 27 0;
#X connect 35 1 27 7;
#X connect 36 0 27 0;
#X connect 36 1 27 6;
#X connect 37 0 27 0;
#X connect 37 1 27 1;
#X connect 38 0 27 0;
#X connect 38 1 27 3;
#X connect 39 0 27 0;
#X connect 39 1 27 2;
#X connect 40 0 43 0;
#X connect 40 1 43 5;
#X connect 41 0 43 0;
#X connect 42 0 53 0;
#X connect 43 0 21 0;
#X connect 44 0 40 0;
#X connect 45 0 52 0;
#X connect 46 0 51 0;
#X connect 47 0 55 0;
#X connect 48 0 54 0;
#X connect 49 0 50 0;
#X connect 50 0 43 0;
#X connect 50 1 43 4;
#X connect 51 0 43 0;
#X connect 51 1 43 7;
#X connect 52 0 43 0;
#X connect 52 1 43 6;
#X connect 53 0 43 0;
#X connect 53 1 43 1;
#X connect 54 0 43 0;
#X connect 54 1 43 3;
#X connect 55 0 43 0;
#X connect 55 1 43 2;
#X connect 56 0 59 0;
#X connect 56 1 59 5;
#X connect 57 0 59 0;
#X connect 58 0 69 0;
#X connect 59 0 22 0;
#X connect 60 0 56 0;
#X connect 61 0 68 0;
#X connect 62 0 67 0;
#X connect 63 0 71 0;
#X connect 64 0 70 0;
#X connect 65 0 66 0;
#X connect 66 0 59 0;
#X connect 66 1 59 4;
#X connect 67 0 59 0;
#X connect 67 1 59 7;
#X connect 68 0 59 0;
#X connect 68 1 59 6;
#X connect 69 0 59 0;
#X connect 69 1 59 1;
#X connect 70 0 59 0;
#X connect 70 1 59 3;
#X connect 71 0 59 0;
#X connect 71 1 59 2;
#X connect 72 0 75 0;
#X connect 72 1 75 5;
#X connect 73 0 75 0;
#X connect 74 0 85 0;
#X connect 75 0 23 0;
#X connect 76 0 72 0;
#X connect 77 0 84 0;
#X connect 78 0 83 0;
#X connect 79 0 87 0;
#X connect 80 0 86 0;
#X connect 81 0 82 0;
#X connect 82 0 75 0;
#X connect 82 1 75 4;
#X connect 83 0 75 0;
#X connect 83 1 75 7;
#X connect 84 0 75 0;
#X connect 84 1 75 6;
#X connect 85 0 75 0;
#X connect 85 1 75 1;
#X connect 86 0 75 0;
#X connect 86 1 75 3;
#X connect 87 0 75 0;
#X connect 87 1 75 2;
#X connect 90 0 93 0;
#X connect 90 1 93 5;
#X connect 91 0 93 0;
#X connect 92 0 103 0;
#X connect 93 0 88 0;
#X connect 94 0 90 0;
#X connect 95 0 102 0;
#X connect 96 0 101 0;
#X connect 97 0 105 0;
#X connect 98 0 104 0;
#X connect 99 0 100 0;
#X connect 100 0 93 0;
#X connect 100 1 93 4;
#X connect 101 0 93 0;
#X connect 101 1 93 7;
#X connect 102 0 93 0;
#X connect 102 1 93 6;
#X connect 103 0 93 0;
#X connect 103 1 93 1;
#X connect 104 0 93 0;
#X connect 104 1 93 3;
#X connect 105 0 93 0;
#X connect 105 1 93 2;
#X connect 106 0 109 0;
#X connect 106 1 109 5;
#X connect 107 0 109 0;
#X connect 108 0 119 0;
#X connect 109 0 89 0;
#X connect 110 0 106 0;
#X connect 111 0 118 0;
#X connect 112 0 117 0;
#X connect 113 0 121 0;
#X connect 114 0 120 0;
#X connect 115 0 116 0;
#X connect 116 0 109 0;
#X connect 116 1 109 4;
#X connect 117 0 109 0;
#X connect 117 1 109 7;
#X connect 118 0 109 0;
#X connect 118 1 109 6;
#X connect 119 0 109 0;
#X connect 119 1 109 1;
#X connect 120 0 109 0;
#X connect 120 1 109 3;
#X connect 121 0 109 0;
#X connect 121 1 109 2;
#X connect 123 0 126 0;
#X connect 123 1 126 5;
#X connect 124 0 126 0;
#X connect 125 0 136 0;
#X connect 126 0 122 0;
#X connect 127 0 123 0;
#X connect 128 0 135 0;
#X connect 129 0 134 0;
#X connect 130 0 138 0;
#X connect 131 0 137 0;
#X connect 132 0 133 0;
#X connect 133 0 126 0;
#X connect 133 1 126 4;
#X connect 134 0 126 0;
#X connect 134 1 126 7;
#X connect 135 0 126 0;
#X connect 135 1 126 6;
#X connect 136 0 126 0;
#X connect 136 1 126 1;
#X connect 137 0 126 0;
#X connect 137 1 126 3;
#X connect 138 0 126 0;
#X connect 138 1 126 2;
#X connect 139 0 142 0;
#X connect 139 1 142 5;
#X connect 140 0 142 0;
#X connect 141 0 153 0;
#X connect 142 0 143 0;
#X connect 144 0 139 0;
#X connect 145 0 152 0;
#X connect 146 0 151 0;
#X connect 147 0 155 0;
#X connect 148 0 154 0;
#X connect 149 0 150 0;
#X connect 150 0 142 0;
#X connect 150 1 142 4;
#X connect 151 0 142 0;
#X connect 151 1 142 7;
#X connect 152 0 142 0;
#X connect 152 1 142 6;
#X connect 153 0 142 0;
#X connect 153 1 142 1;
#X connect 154 0 142 0;
#X connect 154 1 142 3;
#X connect 155 0 142 0;
#X connect 155 1 142 2;
#X connect 160 0 163 0;
#X connect 160 1 163 5;
#X connect 161 0 163 0;
#X connect 162 0 173 0;
#X connect 163 0 156 0;
#X connect 164 0 160 0;
#X connect 165 0 172 0;
#X connect 166 0 171 0;
#X connect 167 0 175 0;
#X connect 168 0 174 0;
#X connect 169 0 170 0;
#X connect 170 0 163 0;
#X connect 170 1 163 4;
#X connect 171 0 163 0;
#X connect 171 1 163 7;
#X connect 172 0 163 0;
#X connect 172 1 163 6;
#X connect 173 0 163 0;
#X connect 173 1 163 1;
#X connect 174 0 163 0;
#X connect 174 1 163 3;
#X connect 175 0 163 0;
#X connect 175 1 163 2;
#X connect 176 0 179 0;
#X connect 176 1 179 5;
#X connect 177 0 179 0;
#X connect 178 0 189 0;
#X connect 179 0 157 0;
#X connect 180 0 176 0;
#X connect 181 0 188 0;
#X connect 182 0 187 0;
#X connect 183 0 191 0;
#X connect 184 0 190 0;
#X connect 185 0 186 0;
#X connect 186 0 179 0;
#X connect 186 1 179 4;
#X connect 187 0 179 0;
#X connect 187 1 179 7;
#X connect 188 0 179 0;
#X connect 188 1 179 6;
#X connect 189 0 179 0;
#X connect 189 1 179 1;
#X connect 190 0 179 0;
#X connect 190 1 179 3;
#X connect 191 0 179 0;
#X connect 191 1 179 2;
#X connect 192 0 195 0;
#X connect 192 1 195 5;
#X connect 193 0 195 0;
#X connect 194 0 205 0;
#X connect 195 0 158 0;
#X connect 196 0 192 0;
#X connect 197 0 204 0;
#X connect 198 0 203 0;
#X connect 199 0 207 0;
#X connect 200 0 206 0;
#X connect 201 0 202 0;
#X connect 202 0 195 0;
#X connect 202 1 195 4;
#X connect 203 0 195 0;
#X connect 203 1 195 7;
#X connect 204 0 195 0;
#X connect 204 1 195 6;
#X connect 205 0 195 0;
#X connect 205 1 195 1;
#X connect 206 0 195 0;
#X connect 206 1 195 3;
#X connect 207 0 195 0;
#X connect 207 1 195 2;
#X connect 208 0 211 0;
#X connect 208 1 211 5;
#X connect 209 0 211 0;
#X connect 210 0 221 0;
#X connect 211 0 159 0;
#X connect 212 0 208 0;
#X connect 213 0 220 0;
#X connect 214 0 219 0;
#X connect 215 0 223 0;
#X connect 216 0 222 0;
#X connect 217 0 218 0;
#X connect 218 0 211 0;
#X connect 218 1 211 4;
#X connect 219 0 211 0;
#X connect 219 1 211 7;
#X connect 220 0 211 0;
#X connect 220 1 211 6;
#X connect 221 0 211 0;
#X connect 221 1 211 1;
#X connect 222 0 211 0;
#X connect 222 1 211 3;
#X connect 223 0 211 0;
#X connect 223 1 211 2;
#X connect 226 0 229 0;
#X connect 226 1 229 5;
#X connect 227 0 229 0;
#X connect 228 0 239 0;
#X connect 229 0 224 0;
#X connect 230 0 226 0;
#X connect 231 0 238 0;
#X connect 232 0 237 0;
#X connect 233 0 241 0;
#X connect 234 0 240 0;
#X connect 235 0 236 0;
#X connect 236 0 229 0;
#X connect 236 1 229 4;
#X connect 237 0 229 0;
#X connect 237 1 229 7;
#X connect 238 0 229 0;
#X connect 238 1 229 6;
#X connect 239 0 229 0;
#X connect 239 1 229 1;
#X connect 240 0 229 0;
#X connect 240 1 229 3;
#X connect 241 0 229 0;
#X connect 241 1 229 2;
#X connect 242 0 245 0;
#X connect 242 1 245 5;
#X connect 243 0 245 0;
#X connect 244 0 255 0;
#X connect 245 0 225 0;
#X connect 246 0 242 0;
#X connect 247 0 254 0;
#X connect 248 0 253 0;
#X connect 249 0 257 0;
#X connect 250 0 256 0;
#X connect 251 0 252 0;
#X connect 252 0 245 0;
#X connect 252 1 245 4;
#X connect 253 0 245 0;
#X connect 253 1 245 7;
#X connect 254 0 245 0;
#X connect 254 1 245 6;
#X connect 255 0 245 0;
#X connect 255 1 245 1;
#X connect 256 0 245 0;
#X connect 256 1 245 3;
#X connect 257 0 245 0;
#X connect 257 1 245 2;
#X connect 259 0 262 0;
#X connect 259 1 262 5;
#X connect 260 0 262 0;
#X connect 261 0 272 0;
#X connect 262 0 258 0;
#X connect 263 0 259 0;
#X connect 264 0 271 0;
#X connect 265 0 270 0;
#X connect 266 0 274 0;
#X connect 267 0 273 0;
#X connect 268 0 269 0;
#X connect 269 0 262 0;
#X connect 269 1 262 4;
#X connect 270 0 262 0;
#X connect 270 1 262 7;
#X connect 271 0 262 0;
#X connect 271 1 262 6;
#X connect 272 0 262 0;
#X connect 272 1 262 1;
#X connect 273 0 262 0;
#X connect 273 1 262 3;
#X connect 274 0 262 0;
#X connect 274 1 262 2;
#X connect 275 0 3 0;
#X connect 275 0 5 0;
#X connect 275 0 11 0;
#X connect 275 0 13 0;
#X connect 275 0 8 0;
#X connect 275 0 12 0;
#X connect 275 0 10 0;
#X connect 275 0 9 0;
#X connect 276 0 41 0;
#X connect 276 0 42 0;
#X connect 276 0 47 0;
#X connect 276 0 49 0;
#X connect 276 0 44 0;
#X connect 276 0 48 0;
#X connect 276 0 46 0;
#X connect 276 0 45 0;
#X connect 277 0 73 0;
#X connect 277 0 74 0;
#X connect 277 0 79 0;
#X connect 277 0 81 0;
#X connect 277 0 76 0;
#X connect 277 0 80 0;
#X connect 277 0 78 0;
#X connect 277 0 77 0;
#X connect 278 0 107 0;
#X connect 278 0 108 0;
#X connect 278 0 113 0;
#X connect 278 0 115 0;
#X connect 278 0 110 0;
#X connect 278 0 114 0;
#X connect 278 0 112 0;
#X connect 278 0 111 0;
#X connect 279 0 25 0;
#X connect 279 0 26 0;
#X connect 279 0 31 0;
#X connect 279 0 33 0;
#X connect 279 0 28 0;
#X connect 279 0 32 0;
#X connect 279 0 30 0;
#X connect 279 0 29 0;
#X connect 280 0 57 0;
#X connect 280 0 58 0;
#X connect 280 0 63 0;
#X connect 280 0 65 0;
#X connect 280 0 60 0;
#X connect 280 0 64 0;
#X connect 280 0 62 0;
#X connect 280 0 61 0;
#X connect 281 0 91 0;
#X connect 281 0 92 0;
#X connect 281 0 97 0;
#X connect 281 0 99 0;
#X connect 281 0 94 0;
#X connect 281 0 98 0;
#X connect 281 0 96 0;
#X connect 281 0 95 0;
#X connect 282 0 124 0;
#X connect 282 0 125 0;
#X connect 282 0 130 0;
#X connect 282 0 132 0;
#X connect 282 0 127 0;
#X connect 282 0 131 0;
#X connect 282 0 129 0;
#X connect 282 0 128 0;
#X connect 283 0 140 0;
#X connect 283 0 141 0;
#X connect 283 0 147 0;
#X connect 283 0 149 0;
#X connect 283 0 144 0;
#X connect 283 0 148 0;
#X connect 283 0 146 0;
#X connect 283 0 145 0;
#X connect 284 0 177 0;
#X connect 284 0 178 0;
#X connect 284 0 183 0;
#X connect 284 0 185 0;
#X connect 284 0 180 0;
#X connect 284 0 184 0;
#X connect 284 0 182 0;
#X connect 284 0 181 0;
#X connect 285 0 209 0;
#X connect 285 0 210 0;
#X connect 285 0 215 0;
#X connect 285 0 217 0;
#X connect 285 0 212 0;
#X connect 285 0 216 0;
#X connect 285 0 214 0;
#X connect 285 0 213 0;
#X connect 286 0 243 0;
#X connect 286 0 244 0;
#X connect 286 0 249 0;
#X connect 286 0 251 0;
#X connect 286 0 246 0;
#X connect 286 0 250 0;
#X connect 286 0 248 0;
#X connect 286 0 247 0;
#X connect 287 0 161 0;
#X connect 287 0 162 0;
#X connect 287 0 167 0;
#X connect 287 0 169 0;
#X connect 287 0 164 0;
#X connect 287 0 168 0;
#X connect 287 0 166 0;
#X connect 287 0 165 0;
#X connect 288 0 193 0;
#X connect 288 0 194 0;
#X connect 288 0 199 0;
#X connect 288 0 201 0;
#X connect 288 0 196 0;
#X connect 288 0 200 0;
#X connect 288 0 198 0;
#X connect 288 0 197 0;
#X connect 289 0 227 0;
#X connect 289 0 228 0;
#X connect 289 0 233 0;
#X connect 289 0 235 0;
#X connect 289 0 230 0;
#X connect 289 0 234 0;
#X connect 289 0 232 0;
#X connect 289 0 231 0;
#X connect 290 0 260 0;
#X connect 290 0 261 0;
#X connect 290 0 266 0;
#X connect 290 0 268 0;
#X connect 290 0 263 0;
#X connect 290 0 267 0;
#X connect 290 0 265 0;
#X connect 290 0 264 0;
#X restore 244 37 pd osc_stuff;
#X f 123;
#X obj 178 440 env~ 128;
#X obj 178 461 - 100;
#X obj 178 482 vu 15 120 empty empty -1 -8 0 10 -66577 -1 1 0;
#X obj 248 448 env~ 128;
#X obj 248 469 - 100;
#X obj 248 490 vu 15 120 empty empty -1 -8 0 10 -66577 -1 1 0;
#X obj 19 333 vas_binaural_poly, f 21;
#X obj 153 333 vas_binaural_poly, f 22;
#X obj 292 333 vas_binaural_poly, f 22;
#X obj 432 332 vas_binaural_poly, f 22;
#X obj 573 332 vas_binaural_poly, f 22;
#X obj 286 393 dac~ 1 2 3 4 5 6 7 8 9 10 11 12 13 14 15 16, f 105
;
#X obj 720 331 vas_binaural_poly, f 22;
#X obj 860 330 vas_binaural_poly, f 22;
#X obj 1001 330 vas_binaural_poly, f 22;
#X msg 400 566 \; pd dsp \$1;
#X msg 400 541 1;
#X obj 400 517 loadbang;
#X connect 0 0 1 0;
#X connect 0 0 14 0;
#X connect 0 0 15 0;
#X connect 0 0 16 0;
#X connect 0 0 17 0;
#X connect 0 0 18 0;
#X connect 0 0 20 0;
#X connect 0 0 21 0;
#X connect 0 0 22 0;
#X connect 0 1 4 0;
#X connect 0 1 14 1;
#X connect 0 1 15 1;
#X connect 0 1 16 1;
#X connect 0 1 17 1;
#X connect 0 1 18 1;
#X connect 0 1 20 1;
#X connect 0 1 21 1;
#X connect 0 1 22 1;
#X connect 0 2 8 0;
#X connect 0 2 14 2;
#X connect 0 2 15 2;
#X connect 0 2 16 2;
#X connect 0 2 17 2;
#X connect 0 2 18 2;
#X connect 0 2 20 2;
#X connect 0 2 21 2;
#X connect 0 2 22 2;
#X connect 0 3 11 0;
#X connect 0 3 14 3;
#X connect 0 3 15 3;
#X connect 0 3 16 3;
#X connect 0 3 17 3;
#X connect 0 3 18 3;
#X connect 0 3 20 3;
#X connect 0 3 21 3;
#X connect 0 3 22 3;
#X connect 0 4 14 4;
#X connect 0 4 15 4;
#X connect 0 4 16 4;
#X connect 0 4 17 4;
#X connect 0 4 18 4;
#X connect 0 4 20 4;
#X connect 0 4 21 4;
#X connect 0 4 22 4;
#X connect 0 5 14 5;
#X connect 0 5 15 5;
#X connect 0 5 16 5;
#X connect 0 5 17 5;
#X connect 0 5 18 5;
#X connect 0 5 20 5;
#X connect 0 5 21 5;
#X connect 0 5 22 5;
#X connect 0 6 14 6;
#X connect 0 6 15 6;
#X connect 0 6 16 6;
#X connect 0 6 17 6;
#X connect 0 6 18 6;
#X connect 0 6 20 6;
#X connect 0 6 21 6;
#X connect 0 6 22 6;
#X connect 0 7 15 7;
#X connect 0 7 16 7;
#X connect 0 7 17 7;
#X connect 0 7 18 7;
#X connect 0 7 14 7;
#X connect 0 7 20 7;
#X connect 0 7 21 7;
#X connect 0 7 22 7;
#X connect 1 0 2 0;
#X connect 2 0 3 0;
#X connect 4 0 5 0;
#X connect 5 0 6 0;
#X connect 7 0 14 8;
#X connect 7 1 15 8;
#X connect 7 2 16 8;
#X connect 7 3 17 8;
#X connect 7 4 18 8;
#X connect 7 5 20 8;
#X connect 7 6 21 8;
#X connect 7 7 22 8;
#X connect 7 8 14 9;
#X connect 7 9 15 9;
#X connect 7 10 16 9;
#X connect 7 11 17 9;
#X connect 7 12 18 9;
#X connect 7 13 20 9;
#X connect 7 14 21 9;
#X connect 7 15 22 9;
#X connect 8 0 9 0;
#X connect 9 0 10 0;
#X connect 11 0 12 0;
#X connect 12 0 13 0;
#X connect 14 0 19 0;
#X connect 14 1 19 1;
#X connect 15 0 19 2;
#X connect 15 1 19 3;
#X connect 16 0 19 4;
#X connect 16 1 19 5;
#X connect 17 0 19 6;
#X connect 17 1 19 7;
#X connect 18 0 19 8;
#X connect 18 1 19 9;
#X connect 20 0 19 10;
#X connect 20 1 19 11;
#X connect 21 0 19 12;
#X connect 21 1 19 13;
#X connect 22 0 19 14;
#X connect 22 1 19 15;
#X connect 24 0 23 0;
#X connect 25 0 24 0;
