#N canvas 303 159 1137 674 10;
#X obj 185 567 outlet~;
#X obj 276 571 outlet~;
#X obj 584 37 inlet;
#X obj 584 72 unpack f f f f f f f f, f 75;
#X obj 584 106 pack 0 50;
#X obj 648 106 pack 0 50;
#X obj 713 106 pack 0 50;
#X obj 777 107 pack 0 50;
#X obj 840 108 pack 0 50;
#X obj 903 108 pack 0 50;
#X obj 966 108 pack 0 50;
#X obj 1031 106 pack 0 50;
#X obj 585 133 line 0 1;
#X obj 649 133 line 0 1;
#X obj 714 133 line 0 1;
#X obj 778 134 line 0 1;
#X obj 841 135 line 0 1;
#X obj 904 135 line 0 1;
#X obj 967 135 line 0 1;
#X obj 1032 133 line 0 1;
#X obj 140 234 inlet~;
#X obj 184 234 inlet~;
#X obj 229 233 inlet~;
#X obj 274 233 inlet~;
#X obj 320 234 inlet~;
#X obj 365 234 inlet~;
#X obj 456 235 inlet~;
#X obj 410 235 inlet~;
#X obj 152 298 vas_binaural~ 256 fabian_dir256.txt;
#X obj 192 322 vas_binaural~ 256 fabian_dir256.txt;
#X obj 241 345 vas_binaural~ 256 fabian_dir256.txt;
#X obj 283 375 vas_binaural~ 256 fabian_dir256.txt;
#X obj 325 373 vas_binaural~ 256 fabian_dir256.txt;
#X obj 384 404 vas_binaural~ 256 fabian_dir256.txt;
#X obj 421 432 vas_binaural~ 256 fabian_dir256.txt;
#X obj 466 462 vas_binaural~ 256 fabian_dir256.txt;
#X obj 720 185 inlet;
#X obj 720 220 unpack f f f f f f f f, f 75;
#X obj 720 254 pack 0 50;
#X obj 784 254 pack 0 50;
#X obj 849 254 pack 0 50;
#X obj 913 255 pack 0 50;
#X obj 976 256 pack 0 50;
#X obj 1039 256 pack 0 50;
#X obj 1102 256 pack 0 50;
#X obj 1167 254 pack 0 50;
#X obj 721 281 line 0 1;
#X obj 785 281 line 0 1;
#X obj 849 281 line 0 1;
#X obj 914 282 line 0 1;
#X obj 977 283 line 0 1;
#X obj 1040 283 line 0 1;
#X obj 1103 283 line 0 1;
#X obj 1168 281 line 0 1;
#X connect 2 0 3 0;
#X connect 3 0 4 0;
#X connect 3 1 5 0;
#X connect 3 2 6 0;
#X connect 3 3 7 0;
#X connect 3 4 8 0;
#X connect 3 5 9 0;
#X connect 3 6 10 0;
#X connect 3 7 11 0;
#X connect 4 0 12 0;
#X connect 5 0 13 0;
#X connect 6 0 14 0;
#X connect 7 0 15 0;
#X connect 8 0 16 0;
#X connect 9 0 17 0;
#X connect 10 0 18 0;
#X connect 11 0 19 0;
#X connect 12 0 28 1;
#X connect 13 0 29 1;
#X connect 14 0 30 1;
#X connect 15 0 31 1;
#X connect 16 0 32 1;
#X connect 17 0 33 1;
#X connect 18 0 34 1;
#X connect 19 0 35 1;
#X connect 20 0 28 0;
#X connect 21 0 29 0;
#X connect 22 0 30 0;
#X connect 23 0 31 0;
#X connect 24 0 32 0;
#X connect 25 0 33 0;
#X connect 26 0 35 0;
#X connect 27 0 34 0;
#X connect 28 0 0 0;
#X connect 28 1 1 0;
#X connect 29 0 0 0;
#X connect 29 1 1 0;
#X connect 30 0 0 0;
#X connect 30 1 1 0;
#X connect 31 0 0 0;
#X connect 31 1 1 0;
#X connect 32 0 0 0;
#X connect 32 1 1 0;
#X connect 33 0 0 0;
#X connect 33 1 1 0;
#X connect 34 0 0 0;
#X connect 34 1 1 0;
#X connect 35 0 0 0;
#X connect 35 1 1 0;
#X connect 36 0 37 0;
#X connect 37 0 38 0;
#X connect 37 1 39 0;
#X connect 37 2 40 0;
#X connect 37 3 41 0;
#X connect 37 4 42 0;
#X connect 37 5 43 0;
#X connect 37 6 44 0;
#X connect 37 7 45 0;
#X connect 38 0 46 0;
#X connect 39 0 47 0;
#X connect 40 0 48 0;
#X connect 41 0 49 0;
#X connect 42 0 50 0;
#X connect 43 0 51 0;
#X connect 44 0 52 0;
#X connect 45 0 53 0;
#X connect 46 0 28 2;
#X connect 47 0 29 2;
#X connect 48 0 30 2;
#X connect 49 0 31 2;
#X connect 50 0 32 2;
#X connect 51 0 33 2;
#X connect 52 0 34 2;
#X connect 53 0 35 2;
