#N canvas 32 46 1280 742 12;
#X obj 40 27 adc~ 1;
#X obj 40 145 vsl 40 110 0 200 0 0 empty empty empty 0 -9 0 10 -261682
-1 -1 0 1;
#X obj 40 262 / 127;
#X obj 161 759 *~ 0.5;
#X obj 37 756 *~ 0.5;
#X obj 39 531 r~ source;
#X msg 36 636 set arrayL arrayR 256 0 3840;
#X msg 61 566 set arrayL arrayR 4096 3840 0;
#X obj 40 406 hsl 128 15 0 127 0 0 empty empty empty -2 -8 0 10 -262144
-1 -1 0 1;
#X floatatom 37 435 5 0 0 0 - - -;
#X obj 99 434 expr 127 - $f1;
#X floatatom 99 460 5 0 0 0 - - -;
#X obj 37 376 * 127;
#X obj 37 484 / 127;
#X obj 99 486 / 127;
#X obj 4 666 *~;
#X obj 37 720 *~;
#X obj 76 715 receive vol1, f 7;
#X obj 37 344 receive drywet1;
#X obj 155 666 *~;
#X obj 171 719 *~;
#X obj 217 406 hsl 128 15 0 127 0 0 empty empty empty -2 -8 0 10 -262144
-1 -1 0 1;
#X floatatom 214 435 5 0 0 0 - - -;
#X obj 276 434 expr 127 - $f1;
#X floatatom 276 460 5 0 0 0 - - -;
#X obj 214 376 * 127;
#X obj 214 487 / 127;
#X obj 276 486 / 127;
#X obj 214 344 receive drywet2;
#X obj 200 716 receive vol2, f 7;
#X obj 37 787 dac~ 1 2, f 18;
#X obj 37 665 vas_reverb~ 256;
#X obj 62 596 vas_reverb~ 4096;
#X obj 40 52 s~ source;
#X obj 40 289 send vol1;
#X obj 224 148 vsl 40 110 0 200 0 0 empty empty empty 0 -9 0 10 -261682
-1 -1 0 1;
#X obj 224 265 / 127;
#X obj 224 292 send vol2;
#N canvas 842 23 497 795 loadIRs 0;
#N canvas 0 23 450 300 (subpatch) 0;
#X array arrayL 145156 float 0;
#X coords 0 1 145155 -1 200 80 1 0 0;
#X restore 23 184 graph;
#X obj 54 120 soundfiler;
#X floatatom 54 142 0 0 0 0 - - -;
#X text 111 48 click here to load table;
#N canvas 0 23 450 300 (subpatch) 0;
#X array arrayR 145156 float 0;
#X coords 0 1 145155 -1 200 80 1 0 0;
#X restore 238 184 graph;
#X msg 54 71 read -resize MediumStage.aif arrayL arrayR \;;
#X obj 22 16 loadbang;
#X obj 22 42 t b b;
#N canvas 0 23 450 300 (subpatch) 0;
#X array arrayL2 145156 float 0;
#X coords 0 1 145155 -1 200 80 1 0 0;
#X restore 26 301 graph;
#N canvas 0 23 450 300 (subpatch) 0;
#X array arrayR2 145156 float 0;
#X coords 0 1 145155 -1 200 80 1 0 0;
#X restore 241 301 graph;
#N canvas 0 23 450 300 (subpatch) 0;
#X array arrayL3 145156 float 0;
#X coords 0 1 145155 -1 200 80 1 0 0;
#X restore 30 424 graph;
#N canvas 0 23 450 300 (subpatch) 0;
#X array arrayR3 145156 float 0;
#X coords 0 1 145155 -1 200 80 1 0 0;
#X restore 245 424 graph;
#N canvas 0 23 450 300 (subpatch) 0;
#X array arrayL4 145156 float 0;
#X coords 0 1 145155 -1 200 80 1 0 0;
#X restore 33 551 graph;
#N canvas 0 23 450 300 (subpatch) 0;
#X array arrayR4 145156 float 0;
#X coords 0 1 145155 -1 200 80 1 0 0;
#X restore 248 551 graph;
#N canvas 0 23 450 300 (subpatch) 0;
#X array arrayL5 145156 float 0;
#X coords 0 1 145155 -1 200 80 1 0 0;
#X restore 35 673 graph;
#N canvas 0 23 450 300 (subpatch) 0;
#X array arrayR5 145156 float 0;
#X coords 0 1 145155 -1 200 80 1 0 0;
#X restore 250 673 graph;
#X obj 22 98 s setIRs;
#X connect 1 0 2 0;
#X connect 5 0 1 0;
#X connect 6 0 7 0;
#X connect 7 0 16 0;
#X connect 7 1 5 0;
#X restore 185 49 pd loadIRs;
#X obj 119 530 r setIRs;
#X obj 433 164 oscparse;
#X obj 433 143 netreceive -u -b 57120;
#X obj 433 190 route list;
#X obj 433 217 route ospw;
#X text 430 333 /ospw/0/0/vslider/drywet1/0.5;
#X obj 434 277 route drywet1;
#X obj 433 303 s drywet1;
#X obj 664 274 route drywet2;
#X obj 665 300 s drywet2;
#X obj 518 448 route vol1;
#X obj 518 473 s vol1;
#X obj 702 454 route vol2;
#X obj 702 478 s vol2;
#X text 661 331 /ospw/1/0/vslider/drywet2/0.5;
#X text 517 506 /ospw/0/2/dial/vol1/0.5;
#X text 697 506 /ospw/1/2/dial/vol2/0.5;
#X connect 0 0 33 0;
#X connect 1 0 2 0;
#X connect 2 0 34 0;
#X connect 3 0 30 1;
#X connect 4 0 30 0;
#X connect 5 0 15 0;
#X connect 5 0 19 0;
#X connect 5 0 31 0;
#X connect 5 0 32 0;
#X connect 6 0 31 0;
#X connect 7 0 32 0;
#X connect 8 0 9 0;
#X connect 9 0 10 0;
#X connect 9 0 13 0;
#X connect 10 0 11 0;
#X connect 11 0 14 0;
#X connect 12 0 8 0;
#X connect 13 0 16 1;
#X connect 14 0 15 1;
#X connect 15 0 4 0;
#X connect 16 0 4 0;
#X connect 17 0 4 1;
#X connect 18 0 12 0;
#X connect 19 0 3 0;
#X connect 20 0 3 0;
#X connect 21 0 22 0;
#X connect 22 0 23 0;
#X connect 22 0 26 0;
#X connect 23 0 24 0;
#X connect 24 0 27 0;
#X connect 25 0 21 0;
#X connect 26 0 20 1;
#X connect 27 0 19 1;
#X connect 28 0 25 0;
#X connect 29 0 3 1;
#X connect 31 0 16 0;
#X connect 31 1 20 0;
#X connect 32 0 16 0;
#X connect 32 1 20 0;
#X connect 35 0 36 0;
#X connect 36 0 37 0;
#X connect 39 0 7 0;
#X connect 39 0 6 0;
#X connect 40 0 42 0;
#X connect 41 0 40 0;
#X connect 42 0 43 0;
#X connect 43 0 45 0;
#X connect 43 0 47 0;
#X connect 43 0 49 0;
#X connect 43 0 51 0;
#X connect 45 0 46 0;
#X connect 47 0 48 0;
#X connect 49 0 50 0;
#X connect 51 0 52 0;
