#N canvas 326 338 613 416 10;
#X obj 185 210 tr_biquad~ 4 2500 1 1;
#X obj 71 162 tr_biquad~ 4 12000 1 1;
#X obj 313 250 tr_biquad~ 4 80 1 1;
#X obj 71 114 inlet~;
#X obj 312 292 outlet~;
#X obj 159 27 inlet;
#X obj 300 32 inlet;
#X obj 446 30 inlet;
#X obj 452 147 list trim;
#X obj 452 118 list prepend gain;
#X obj 300 146 list trim;
#X obj 300 117 list prepend gain;
#X obj 158 134 list trim;
#X obj 158 114 list prepend gain;
#X obj 159 69 * 30;
#X obj 159 89 - 15;
#X obj 299 70 * 30;
#X obj 299 90 - 15;
#X obj 451 67 * 30;
#X obj 451 87 - 15;
#X connect 0 0 2 0;
#X connect 1 0 0 0;
#X connect 2 0 4 0;
#X connect 3 0 1 0;
#X connect 5 0 14 0;
#X connect 6 0 16 0;
#X connect 7 0 18 0;
#X connect 8 0 2 0;
#X connect 9 0 8 0;
#X connect 10 0 0 0;
#X connect 11 0 10 0;
#X connect 12 0 1 0;
#X connect 13 0 12 0;
#X connect 14 0 15 0;
#X connect 15 0 13 0;
#X connect 16 0 17 0;
#X connect 17 0 11 0;
#X connect 18 0 19 0;
#X connect 19 0 9 0;
