#N canvas 0 85 1315 750 10;
#X obj 48 42 adc~ 1;
#X obj 185 37 adc~ 2;
#X obj 328 36 adc~ 3;
#X obj 474 40 adc~ 4;
#X obj 647 47 adc~ 5;
#X obj 797 52 adc~ 6;
#X obj 47 188 *~ 0;
#X obj 182 189 *~ 0;
#X obj 325 180 *~ 0;
#X obj 476 191 *~ 0;
#X obj 650 190 *~ 0;
#X obj 798 191 *~ 0;
#X obj 46 213 dac~ 1;
#X obj 180 215 dac~ 2;
#X obj 325 206 dac~ 3;
#X obj 476 219 dac~ 4;
#X obj 651 215 dac~ 5;
#X obj 798 215 dac~ 6;
#X text 47 596 use_channels;
#X obj 541 583 tr_biquad~ 0 500 1 1;
#X text 546 630 0 -> LOWPASS;
#X text 546 644 1 -> HIGHPASS;
#X text 546 659 2 -> LOWSHELF;
#X text 546 686 4 -> PEAK FILTER;
#X text 545 612 filterType:, f 12;
#X text 546 673 3 -> HIGHSHELF;
#X obj 47 136 biquad_poly;
#X obj 182 134 biquad_poly;
#X obj 325 133 biquad_poly;
#X obj 476 130 biquad_poly;
#X obj 649 138 biquad_poly;
#X obj 797 139 biquad_poly;
#X obj 332 603 oscparse;
#X obj 332 582 netreceive -u -b 57120;
#X obj 332 629 route list;
#X obj 332 653 route ospw;
#N canvas 4 63 1658 826 routing 0;
#X obj 1092 92 inlet;
#X obj 22 391 route ch1;
#X obj 27 490 route pos1;
#X obj 56 532 route pos3;
#X obj 42 512 route pos2;
#X obj 19 469 route pos0;
#X obj 123 484 route pos1;
#X obj 152 526 route pos3;
#X obj 138 506 route pos2;
#X obj 115 463 route pos0;
#X obj 19 599 s ch1_pos0;
#X obj 28 621 s ch1_pos1;
#X obj 43 644 s ch1_pos2;
#X obj 58 666 s ch1_pos3;
#X obj 118 605 s ch2_pos0;
#X obj 127 627 s ch2_pos1;
#X obj 142 650 s ch2_pos2;
#X obj 157 672 s ch2_pos3;
#X obj 114 393 route ch2;
#X obj 241 487 route pos1;
#X obj 270 529 route pos3;
#X obj 256 509 route pos2;
#X obj 233 466 route pos0;
#X obj 232 396 route ch3;
#X obj 236 608 s ch3_pos0;
#X obj 245 630 s ch3_pos1;
#X obj 260 653 s ch3_pos2;
#X obj 275 675 s ch3_pos3;
#X obj 376 487 route pos1;
#X obj 405 529 route pos3;
#X obj 391 509 route pos2;
#X obj 368 466 route pos0;
#X obj 367 396 route ch4;
#X obj 371 608 s ch4_pos0;
#X obj 380 630 s ch4_pos1;
#X obj 395 653 s ch4_pos2;
#X obj 410 675 s ch4_pos3;
#X obj 500 490 route pos1;
#X obj 529 532 route pos3;
#X obj 515 512 route pos2;
#X obj 492 469 route pos0;
#X obj 491 399 route ch5;
#X obj 494 611 s ch5_pos0;
#X obj 504 633 s ch5_pos1;
#X obj 519 656 s ch5_pos2;
#X obj 534 678 s ch5_pos3;
#X obj 616 495 route pos1;
#X obj 645 537 route pos3;
#X obj 631 517 route pos2;
#X obj 608 474 route pos0;
#X obj 607 404 route ch6;
#X obj 610 616 s ch6_pos0;
#X obj 620 638 s ch6_pos1;
#X obj 635 661 s ch6_pos2;
#X obj 650 683 s ch6_pos3;
#X obj 741 495 route pos1;
#X obj 770 537 route pos3;
#X obj 756 517 route pos2;
#X obj 733 474 route pos0;
#X obj 732 404 route ch7;
#X obj 735 616 s ch7_pos0;
#X obj 745 638 s ch7_pos1;
#X obj 760 661 s ch7_pos2;
#X obj 775 683 s ch7_pos3;
#X obj 860 500 route pos1;
#X obj 889 542 route pos3;
#X obj 875 522 route pos2;
#X obj 852 479 route pos0;
#X obj 851 409 route ch8;
#X obj 854 621 s ch8_pos0;
#X obj 864 643 s ch8_pos1;
#X obj 879 666 s ch8_pos2;
#X obj 894 688 s ch8_pos3;
#X obj 1020 508 route pos1;
#X obj 1049 550 route pos3;
#X obj 1035 530 route pos2;
#X obj 1012 487 route pos0;
#X obj 1116 502 route pos1;
#X obj 1145 544 route pos3;
#X obj 1131 524 route pos2;
#X obj 1108 481 route pos0;
#X obj 1234 505 route pos1;
#X obj 1263 547 route pos3;
#X obj 1249 527 route pos2;
#X obj 1226 484 route pos0;
#X obj 1369 505 route pos1;
#X obj 1398 547 route pos3;
#X obj 1384 527 route pos2;
#X obj 1361 484 route pos0;
#X obj 1493 508 route pos1;
#X obj 1522 550 route pos3;
#X obj 1508 530 route pos2;
#X obj 1485 487 route pos0;
#X obj 1609 513 route pos1;
#X obj 1638 555 route pos3;
#X obj 1624 535 route pos2;
#X obj 1601 492 route pos0;
#X obj 1734 513 route pos1;
#X obj 1763 555 route pos3;
#X obj 1749 535 route pos2;
#X obj 1726 492 route pos0;
#X obj 1853 518 route pos1;
#X obj 1882 560 route pos3;
#X obj 1868 540 route pos2;
#X obj 1845 497 route pos0;
#X obj 1015 409 route ch9;
#X obj 1012 617 s ch9_pos0;
#X obj 1021 640 s ch9_pos1;
#X obj 1036 662 s ch9_pos2;
#X obj 1051 684 s ch9_pos3;
#X obj 1107 411 route ch10;
#X obj 1111 623 s ch10_pos0;
#X obj 1120 645 s ch10_pos1;
#X obj 1135 668 s ch10_pos2;
#X obj 1150 690 s ch10_pos3;
#X obj 1225 414 route ch11;
#X obj 1229 626 s ch11_pos0;
#X obj 1238 648 s ch11_pos1;
#X obj 1253 671 s ch11_pos2;
#X obj 1268 693 s ch11_pos3;
#X obj 1360 414 route ch12;
#X obj 1364 626 s ch12_pos0;
#X obj 1373 648 s ch12_pos1;
#X obj 1388 671 s ch12_pos2;
#X obj 1403 693 s ch12_pos3;
#X obj 1484 417 route ch13;
#X obj 1487 629 s ch13_pos0;
#X obj 1497 651 s ch13_pos1;
#X obj 1512 674 s ch13_pos2;
#X obj 1527 696 s ch13_pos3;
#X obj 1600 422 route ch14;
#X obj 1602 634 s ch14_pos0;
#X obj 1612 656 s ch14_pos1;
#X obj 1628 679 s ch14_pos2;
#X obj 1644 701 s ch14_pos3;
#X obj 1725 422 route ch15;
#X obj 1728 634 s ch15_pos0;
#X obj 1738 656 s ch15_pos1;
#X obj 1753 679 s ch15_pos2;
#X obj 1768 701 s ch15_pos3;
#X obj 1844 427 route ch16;
#X obj 1847 638 s ch16_pos0;
#X obj 1857 661 s ch16_pos1;
#X obj 1872 684 s ch16_pos2;
#X obj 1887 707 s ch16_pos3;
#X connect 0 0 1 0;
#X connect 0 0 18 0;
#X connect 0 0 23 0;
#X connect 0 0 32 0;
#X connect 0 0 41 0;
#X connect 0 0 50 0;
#X connect 0 0 59 0;
#X connect 0 0 68 0;
#X connect 0 0 105 0;
#X connect 0 0 110 0;
#X connect 0 0 115 0;
#X connect 0 0 120 0;
#X connect 0 0 125 0;
#X connect 0 0 130 0;
#X connect 0 0 135 0;
#X connect 0 0 140 0;
#X connect 1 0 2 0;
#X connect 1 0 3 0;
#X connect 1 0 4 0;
#X connect 1 0 5 0;
#X connect 2 0 11 0;
#X connect 3 0 13 0;
#X connect 4 0 12 0;
#X connect 5 0 10 0;
#X connect 6 0 15 0;
#X connect 7 0 17 0;
#X connect 8 0 16 0;
#X connect 9 0 14 0;
#X connect 18 0 6 0;
#X connect 18 0 7 0;
#X connect 18 0 8 0;
#X connect 18 0 9 0;
#X connect 19 0 25 0;
#X connect 20 0 27 0;
#X connect 21 0 26 0;
#X connect 22 0 24 0;
#X connect 23 0 19 0;
#X connect 23 0 20 0;
#X connect 23 0 21 0;
#X connect 23 0 22 0;
#X connect 28 0 34 0;
#X connect 29 0 36 0;
#X connect 30 0 35 0;
#X connect 31 0 33 0;
#X connect 32 0 28 0;
#X connect 32 0 29 0;
#X connect 32 0 30 0;
#X connect 32 0 31 0;
#X connect 37 0 43 0;
#X connect 38 0 45 0;
#X connect 39 0 44 0;
#X connect 40 0 42 0;
#X connect 41 0 37 0;
#X connect 41 0 38 0;
#X connect 41 0 39 0;
#X connect 41 0 40 0;
#X connect 46 0 52 0;
#X connect 47 0 54 0;
#X connect 48 0 53 0;
#X connect 49 0 51 0;
#X connect 50 0 46 0;
#X connect 50 0 47 0;
#X connect 50 0 48 0;
#X connect 50 0 49 0;
#X connect 55 0 61 0;
#X connect 56 0 63 0;
#X connect 57 0 62 0;
#X connect 58 0 60 0;
#X connect 59 0 55 0;
#X connect 59 0 56 0;
#X connect 59 0 57 0;
#X connect 59 0 58 0;
#X connect 64 0 70 0;
#X connect 65 0 72 0;
#X connect 66 0 71 0;
#X connect 67 0 69 0;
#X connect 68 0 64 0;
#X connect 68 0 65 0;
#X connect 68 0 66 0;
#X connect 68 0 67 0;
#X connect 73 0 107 0;
#X connect 74 0 109 0;
#X connect 75 0 108 0;
#X connect 76 0 106 0;
#X connect 77 0 112 0;
#X connect 78 0 114 0;
#X connect 79 0 113 0;
#X connect 80 0 111 0;
#X connect 81 0 117 0;
#X connect 82 0 119 0;
#X connect 83 0 118 0;
#X connect 84 0 116 0;
#X connect 85 0 122 0;
#X connect 86 0 124 0;
#X connect 87 0 123 0;
#X connect 88 0 121 0;
#X connect 89 0 127 0;
#X connect 90 0 129 0;
#X connect 91 0 128 0;
#X connect 92 0 126 0;
#X connect 93 0 132 0;
#X connect 94 0 134 0;
#X connect 95 0 133 0;
#X connect 96 0 131 0;
#X connect 97 0 137 0;
#X connect 98 0 139 0;
#X connect 99 0 138 0;
#X connect 100 0 136 0;
#X connect 101 0 142 0;
#X connect 102 0 144 0;
#X connect 103 0 143 0;
#X connect 104 0 141 0;
#X connect 105 0 73 0;
#X connect 105 0 74 0;
#X connect 105 0 75 0;
#X connect 105 0 76 0;
#X connect 110 0 77 0;
#X connect 110 0 78 0;
#X connect 110 0 79 0;
#X connect 110 0 80 0;
#X connect 115 0 81 0;
#X connect 115 0 82 0;
#X connect 115 0 83 0;
#X connect 115 0 84 0;
#X connect 120 0 85 0;
#X connect 120 0 86 0;
#X connect 120 0 87 0;
#X connect 120 0 88 0;
#X connect 125 0 89 0;
#X connect 125 0 90 0;
#X connect 125 0 91 0;
#X connect 125 0 92 0;
#X connect 130 0 93 0;
#X connect 130 0 94 0;
#X connect 130 0 95 0;
#X connect 130 0 96 0;
#X connect 135 0 97 0;
#X connect 135 0 98 0;
#X connect 135 0 99 0;
#X connect 135 0 100 0;
#X connect 140 0 101 0;
#X connect 140 0 102 0;
#X connect 140 0 103 0;
#X connect 140 0 104 0;
#X restore 332 680 pd routing;
#X text 46 611 channel_count 16;
#X text 46 574 comments needed for the server:;
#X text 46 633 channel_object 0 dial 12k 0.5;
#X text 46 648 channel_object 1 dial 2.5k 0.5;
#X text 46 663 channel_object 2 dial 80 0.5;
#X text 47 677 channel_object 3 slider volume 0;
#X obj 69 62 r ch1_pos0;
#X obj 89 87 r ch1_pos1;
#X obj 108 111 r ch1_pos2;
#X obj 67 159 r ch1_pos3;
#X obj 205 62 r ch2_pos0;
#X obj 226 86 r ch2_pos1;
#X obj 245 108 r ch2_pos2;
#X obj 204 158 r ch2_pos3;
#X obj 348 59 r ch3_pos0;
#X obj 369 80 r ch3_pos1;
#X obj 386 104 r ch3_pos2;
#X obj 346 155 r ch3_pos3;
#X obj 498 62 r ch4_pos0;
#X obj 519 85 r ch4_pos1;
#X obj 540 107 r ch4_pos2;
#X obj 494 163 r ch4_pos3;
#X obj 670 70 r ch5_pos0;
#X obj 691 93 r ch5_pos1;
#X obj 711 114 r ch5_pos2;
#X obj 672 168 r ch5_pos3;
#X obj 819 77 r ch6_pos0;
#X obj 838 97 r ch6_pos1;
#X obj 859 117 r ch6_pos2;
#X obj 818 166 r ch6_pos3;
#X obj 946 190 *~ 0;
#X obj 945 138 biquad_poly;
#X obj 945 51 adc~ 7;
#X obj 967 76 r ch7_pos0;
#X obj 986 96 r ch7_pos1;
#X obj 1007 116 r ch7_pos2;
#X obj 966 165 r ch7_pos3;
#X obj 946 214 dac~ 7;
#X obj 1100 191 *~ 0;
#X obj 1099 139 biquad_poly;
#X obj 1099 52 adc~ 8;
#X obj 1121 77 r ch8_pos0;
#X obj 1140 97 r ch8_pos1;
#X obj 1161 116 r ch8_pos2;
#X obj 1120 166 r ch8_pos3;
#X obj 1100 215 dac~ 8;
#X obj 53 427 *~ 0;
#X obj 188 428 *~ 0;
#X obj 331 426 *~ 0;
#X obj 482 430 *~ 0;
#X obj 656 429 *~ 0;
#X obj 804 430 *~ 0;
#X obj 53 375 biquad_poly;
#X obj 188 373 biquad_poly;
#X obj 331 372 biquad_poly;
#X obj 481 369 biquad_poly;
#X obj 655 377 biquad_poly;
#X obj 803 378 biquad_poly;
#X obj 952 429 *~ 0;
#X obj 951 377 biquad_poly;
#X obj 1106 430 *~ 0;
#X obj 1105 378 biquad_poly;
#X obj 54 281 adc~ 9;
#X obj 75 302 r ch9_pos0;
#X obj 95 326 r ch9_pos1;
#X obj 114 350 r ch9_pos2;
#X obj 73 398 r ch9_pos3;
#X obj 52 452 dac~ 9;
#X obj 191 276 adc~ 10;
#X obj 211 302 r ch10_pos0;
#X obj 232 325 r ch10_pos1;
#X obj 251 346 r ch10_pos2;
#X obj 210 397 r ch10_pos3;
#X obj 186 454 dac~ 10;
#X obj 334 275 adc~ 11;
#X obj 354 298 r ch11_pos0;
#X obj 375 319 r ch11_pos1;
#X obj 392 342 r ch11_pos2;
#X obj 352 394 r ch11_pos3;
#X obj 331 452 dac~ 11;
#X obj 479 279 adc~ 12;
#X obj 504 301 r ch12_pos0;
#X obj 525 324 r ch12_pos1;
#X obj 546 346 r ch12_pos2;
#X obj 500 402 r ch12_pos3;
#X obj 482 458 dac~ 12;
#X obj 653 286 adc~ 13;
#X obj 676 310 r ch13_pos0;
#X obj 697 332 r ch13_pos1;
#X obj 717 353 r ch13_pos2;
#X obj 678 407 r ch13_pos3;
#X obj 657 454 dac~ 13;
#X obj 803 291 adc~ 14;
#X obj 825 316 r ch14_pos0;
#X obj 844 336 r ch14_pos1;
#X obj 866 357 r ch14_pos2;
#X obj 824 405 r ch14_pos3;
#X obj 804 454 dac~ 14;
#X obj 951 290 adc~ 15;
#X obj 973 315 r ch15_pos0;
#X obj 992 335 r ch15_pos1;
#X obj 1013 355 r ch15_pos2;
#X obj 972 404 r ch15_pos3;
#X obj 952 454 dac~ 15;
#X obj 1105 291 adc~ 16;
#X obj 1127 316 r ch16_pos0;
#X obj 1146 336 r ch16_pos1;
#X obj 1167 355 r ch16_pos2;
#X obj 1126 405 r ch16_pos3;
#X obj 1106 454 dac~ 16;
#X msg 1102 656 \; pd dsp \$1;
#X msg 1102 631 1;
#X obj 1102 607 loadbang;
#X connect 0 0 26 0;
#X connect 1 0 27 0;
#X connect 2 0 28 0;
#X connect 3 0 29 0;
#X connect 4 0 30 0;
#X connect 5 0 31 0;
#X connect 6 0 12 0;
#X connect 7 0 13 0;
#X connect 8 0 14 0;
#X connect 9 0 15 0;
#X connect 10 0 16 0;
#X connect 11 0 17 0;
#X connect 26 0 6 0;
#X connect 27 0 7 0;
#X connect 28 0 8 0;
#X connect 29 0 9 0;
#X connect 30 0 10 0;
#X connect 31 0 11 0;
#X connect 32 0 34 0;
#X connect 33 0 32 0;
#X connect 34 0 35 0;
#X connect 35 0 36 0;
#X connect 43 0 26 1;
#X connect 44 0 26 2;
#X connect 45 0 26 3;
#X connect 46 0 6 1;
#X connect 47 0 27 1;
#X connect 48 0 27 2;
#X connect 49 0 27 3;
#X connect 50 0 7 1;
#X connect 51 0 28 1;
#X connect 52 0 28 2;
#X connect 53 0 28 3;
#X connect 54 0 8 1;
#X connect 55 0 29 1;
#X connect 56 0 29 2;
#X connect 57 0 29 3;
#X connect 58 0 9 1;
#X connect 59 0 30 1;
#X connect 60 0 30 2;
#X connect 61 0 30 3;
#X connect 62 0 10 1;
#X connect 63 0 31 1;
#X connect 64 0 31 2;
#X connect 65 0 31 3;
#X connect 66 0 11 1;
#X connect 67 0 74 0;
#X connect 68 0 67 0;
#X connect 69 0 68 0;
#X connect 70 0 68 1;
#X connect 71 0 68 2;
#X connect 72 0 68 3;
#X connect 73 0 67 1;
#X connect 75 0 82 0;
#X connect 76 0 75 0;
#X connect 77 0 76 0;
#X connect 78 0 76 1;
#X connect 79 0 76 2;
#X connect 80 0 76 3;
#X connect 81 0 75 1;
#X connect 83 0 104 0;
#X connect 84 0 110 0;
#X connect 85 0 116 0;
#X connect 86 0 122 0;
#X connect 87 0 128 0;
#X connect 88 0 134 0;
#X connect 89 0 83 0;
#X connect 90 0 84 0;
#X connect 91 0 85 0;
#X connect 92 0 86 0;
#X connect 93 0 87 0;
#X connect 94 0 88 0;
#X connect 95 0 140 0;
#X connect 96 0 95 0;
#X connect 97 0 146 0;
#X connect 98 0 97 0;
#X connect 99 0 89 0;
#X connect 100 0 89 1;
#X connect 101 0 89 2;
#X connect 102 0 89 3;
#X connect 103 0 83 1;
#X connect 105 0 90 0;
#X connect 106 0 90 1;
#X connect 107 0 90 2;
#X connect 108 0 90 3;
#X connect 109 0 84 1;
#X connect 111 0 91 0;
#X connect 112 0 91 1;
#X connect 113 0 91 2;
#X connect 114 0 91 3;
#X connect 115 0 85 1;
#X connect 117 0 92 0;
#X connect 118 0 92 1;
#X connect 119 0 92 2;
#X connect 120 0 92 3;
#X connect 121 0 86 1;
#X connect 123 0 93 0;
#X connect 124 0 93 1;
#X connect 125 0 93 2;
#X connect 126 0 93 3;
#X connect 127 0 87 1;
#X connect 129 0 94 0;
#X connect 130 0 94 1;
#X connect 131 0 94 2;
#X connect 132 0 94 3;
#X connect 133 0 88 1;
#X connect 135 0 96 0;
#X connect 136 0 96 1;
#X connect 137 0 96 2;
#X connect 138 0 96 3;
#X connect 139 0 95 1;
#X connect 141 0 98 0;
#X connect 142 0 98 1;
#X connect 143 0 98 2;
#X connect 144 0 98 3;
#X connect 145 0 97 1;
#X connect 148 0 147 0;
#X connect 149 0 148 0;
