#N canvas 521 187 919 604 12;
#X obj 44 61 oscparse;
#X obj 44 40 netreceive -u -b 57120;
#X obj 44 87 route list;
#X obj 270 241 s pitch;
#X obj 44 119 route ospw;
#X obj 270 175 route pitch;
#X obj 142 119 print;
#X obj 54 420 r pitch;
#X obj 54 367 * 127;
#X obj 57 394 hsl 128 15 0 127 0 0 empty empty empty -2 -8 0 10 -262144
-1 -1 0 1;
#X obj 54 445 * 127;
#X obj 57 473 hsl 128 15 0 127 0 0 empty empty empty -2 -8 0 10 -262144
-1 -1 0 1;
#X obj 55 532 tgl 15 0 empty empty empty 17 7 0 10 -262144 -1 -1 0
1;
#X text 269 264 /ospw/2/0/hslider/pitch/0.5;
#X msg 424 452 \; pd dsp \$1;
#X msg 424 427 1;
#X obj 424 403 loadbang;
#X obj 271 546 dac~ 1 2;
#X obj 271 398 osc~ 440;
#X obj 46 174 route volume;
#X obj 47 242 s volume;
#X text 45 264 /ospw/0/0/vslider/volume/0.25;
#X obj 54 342 r volume;
#X obj 317 428 r volume;
#X obj 271 458 *~ 0.25;
#X obj 271 373 mtof;
#X obj 270 328 r pitch;
#X obj 271 510 *~ 0;
#X obj 271 351 * 127;
#X obj 503 236 s sound;
#X text 501 261 /ospw/1/1/toggle/sound/0;
#X obj 504 170 route sound;
#X obj 55 503 r sound;
#X obj 296 485 r sound;
#X connect 0 0 2 0;
#X connect 1 0 0 0;
#X connect 2 0 4 0;
#X connect 4 0 5 0;
#X connect 4 0 6 0;
#X connect 4 0 19 0;
#X connect 4 0 31 0;
#X connect 5 0 3 0;
#X connect 7 0 10 0;
#X connect 8 0 9 0;
#X connect 10 0 11 0;
#X connect 15 0 14 0;
#X connect 16 0 15 0;
#X connect 18 0 24 0;
#X connect 19 0 20 0;
#X connect 22 0 8 0;
#X connect 23 0 24 1;
#X connect 24 0 27 0;
#X connect 25 0 18 0;
#X connect 26 0 28 0;
#X connect 27 0 17 0;
#X connect 27 0 17 1;
#X connect 28 0 25 0;
#X connect 31 0 29 0;
#X connect 32 0 12 0;
#X connect 33 0 27 1;
